{"asset":{"version":"2.0","generator":"Blockbench 4.11.2 glTF exporter"},"scenes":[{"nodes":[23],"name":"blockbench_export"}],"scene":0,"nodes":[{"rotation":[-0.4999999999999998,0.5000000000000002,-0.49999999999999967,0.5000000000000003],"name":"door-col","mesh":0},{"translation":[-0.71875,0.46875,0],"name":"door","children":[0]},{"translation":[0,-0.21875,0],"name":"cuboid-col","mesh":1},{"rotation":[0,0,-0.7071067811865475,0.7071067811865476],"translation":[0.21875,0.53125,0],"name":"cuboid-col","mesh":2},{"rotation":[0,0,-0.7071067811865475,0.7071067811865476],"translation":[-0.71875,0.46875,0.375],"name":"cuboid-col","mesh":3},{"rotation":[0,0,-0.7071067811865475,0.7071067811865476],"translation":[-0.71875,0.46875,-0.375],"name":"cuboid-col","mesh":4},{"rotation":[0,0,-0.7071067811865475,0.7071067811865476],"translation":[-0.71875,0.9375,0],"name":"cuboid-col","mesh":5},{"rotation":[0.4999999999999998,-0.5000000000000002,-0.49999999999999967,0.5000000000000003],"translation":[0,0.53125,0.21875],"name":"cuboid-col","mesh":6},{"rotation":[0.4999999999999998,-0.5000000000000002,-0.49999999999999967,0.5000000000000003],"translation":[0,0.53125,-0.71875],"name":"cuboid-col","mesh":7},{"translation":[0,0.78125,0],"name":"cuboid-col","mesh":8},{"name":"walls","children":[1,2,3,4,5,6,7,8,9]},{"rotation":[0,0,-0.7071067811865475,0.7071067811865476],"translation":[0.15625,0.21875,0],"name":"minus_one-col","mesh":9},{"name":"minus1","children":[11]},{"rotation":[0,0,-0.7071067811865475,0.7071067811865476],"translation":[0.15625,0.21875,0.25],"name":"minus_two-col","mesh":10},{"name":"minus2","children":[13]},{"rotation":[0,0,-0.7071067811865475,0.7071067811865476],"translation":[0.15625,0.46875,0.125],"name":"zero-col","mesh":11},{"name":"zero","children":[15]},{"rotation":[0,0,-0.7071067811865475,0.7071067811865476],"translation":[0.15625,0.71875,0],"name":"one-col","mesh":12},{"name":"1","children":[17]},{"rotation":[0,0,-0.7071067811865475,0.7071067811865476],"translation":[0.15625,0.71875,0.25],"name":"TC-col","mesh":13},{"name":"thecreator","children":[19]},{"translation":[0.015625,0,0.125],"name":"buttons","children":[12,14,16,18,20]},{"name":"all","children":[10,21]},{"children":[22]}],"bufferViews":[{"buffer":0,"byteOffset":0,"byteLength":288,"target":34962,"byteStride":12},{"buffer":0,"byteOffset":288,"byteLength":288,"target":34962,"byteStride":12},{"buffer":0,"byteOffset":576,"byteLength":192,"target":34962,"byteStride":8},{"buffer":0,"byteOffset":768,"byteLength":72,"target":34963},{"buffer":0,"byteOffset":840,"byteLength":288,"target":34962,"byteStride":12},{"buffer":0,"byteOffset":1128,"byteLength":288,"target":34962,"byteStride":12},{"buffer":0,"byteOffset":1416,"byteLength":192,"target":34962,"byteStride":8},{"buffer":0,"byteOffset":1608,"byteLength":72,"target":34963},{"buffer":0,"byteOffset":1680,"byteLength":288,"target":34962,"byteStride":12},{"buffer":0,"byteOffset":1968,"byteLength":288,"target":34962,"byteStride":12},{"buffer":0,"byteOffset":2256,"byteLength":192,"target":34962,"byteStride":8},{"buffer":0,"byteOffset":2448,"byteLength":72,"target":34963},{"buffer":0,"byteOffset":2520,"byteLength":288,"target":34962,"byteStride":12},{"buffer":0,"byteOffset":2808,"byteLength":288,"target":34962,"byteStride":12},{"buffer":0,"byteOffset":3096,"byteLength":192,"target":34962,"byteStride":8},{"buffer":0,"byteOffset":3288,"byteLength":72,"target":34963},{"buffer":0,"byteOffset":3360,"byteLength":288,"target":34962,"byteStride":12},{"buffer":0,"byteOffset":3648,"byteLength":288,"target":34962,"byteStride":12},{"buffer":0,"byteOffset":3936,"byteLength":192,"target":34962,"byteStride":8},{"buffer":0,"byteOffset":4128,"byteLength":72,"target":34963},{"buffer":0,"byteOffset":4200,"byteLength":288,"target":34962,"byteStride":12},{"buffer":0,"byteOffset":4488,"byteLength":288,"target":34962,"byteStride":12},{"buffer":0,"byteOffset":4776,"byteLength":192,"target":34962,"byteStride":8},{"buffer":0,"byteOffset":4968,"byteLength":72,"target":34963},{"buffer":0,"byteOffset":5040,"byteLength":288,"target":34962,"byteStride":12},{"buffer":0,"byteOffset":5328,"byteLength":288,"target":34962,"byteStride":12},{"buffer":0,"byteOffset":5616,"byteLength":192,"target":34962,"byteStride":8},{"buffer":0,"byteOffset":5808,"byteLength":72,"target":34963},{"buffer":0,"byteOffset":5880,"byteLength":288,"target":34962,"byteStride":12},{"buffer":0,"byteOffset":6168,"byteLength":288,"target":34962,"byteStride":12},{"buffer":0,"byteOffset":6456,"byteLength":192,"target":34962,"byteStride":8},{"buffer":0,"byteOffset":6648,"byteLength":72,"target":34963},{"buffer":0,"byteOffset":6720,"byteLength":288,"target":34962,"byteStride":12},{"buffer":0,"byteOffset":7008,"byteLength":288,"target":34962,"byteStride":12},{"buffer":0,"byteOffset":7296,"byteLength":192,"target":34962,"byteStride":8},{"buffer":0,"byteOffset":7488,"byteLength":72,"target":34963},{"buffer":0,"byteOffset":7560,"byteLength":288,"target":34962,"byteStride":12},{"buffer":0,"byteOffset":7848,"byteLength":288,"target":34962,"byteStride":12},{"buffer":0,"byteOffset":8136,"byteLength":192,"target":34962,"byteStride":8},{"buffer":0,"byteOffset":8328,"byteLength":72,"target":34963},{"buffer":0,"byteOffset":8400,"byteLength":288,"target":34962,"byteStride":12},{"buffer":0,"byteOffset":8688,"byteLength":288,"target":34962,"byteStride":12},{"buffer":0,"byteOffset":8976,"byteLength":192,"target":34962,"byteStride":8},{"buffer":0,"byteOffset":9168,"byteLength":72,"target":34963},{"buffer":0,"byteOffset":9240,"byteLength":288,"target":34962,"byteStride":12},{"buffer":0,"byteOffset":9528,"byteLength":288,"target":34962,"byteStride":12},{"buffer":0,"byteOffset":9816,"byteLength":192,"target":34962,"byteStride":8},{"buffer":0,"byteOffset":10008,"byteLength":72,"target":34963},{"buffer":0,"byteOffset":10080,"byteLength":288,"target":34962,"byteStride":12},{"buffer":0,"byteOffset":10368,"byteLength":288,"target":34962,"byteStride":12},{"buffer":0,"byteOffset":10656,"byteLength":192,"target":34962,"byteStride":8},{"buffer":0,"byteOffset":10848,"byteLength":72,"target":34963},{"buffer":0,"byteOffset":10920,"byteLength":288,"target":34962,"byteStride":12},{"buffer":0,"byteOffset":11208,"byteLength":288,"target":34962,"byteStride":12},{"buffer":0,"byteOffset":11496,"byteLength":192,"target":34962,"byteStride":8},{"buffer":0,"byteOffset":11688,"byteLength":72,"target":34963},{"buffer":0,"byteOffset":11760,"byteLength":8},{"buffer":0,"byteOffset":11768,"byteLength":32},{"buffer":0,"byteOffset":11800,"byteLength":8},{"buffer":0,"byteOffset":11808,"byteLength":32},{"buffer":0,"byteOffset":11840,"byteLength":12},{"buffer":0,"byteOffset":11852,"byteLength":36},{"buffer":0,"byteOffset":11888,"byteLength":12},{"buffer":0,"byteOffset":11900,"byteLength":36},{"buffer":0,"byteOffset":11936,"byteLength":12},{"buffer":0,"byteOffset":11948,"byteLength":36},{"buffer":0,"byteOffset":11984,"byteLength":8},{"buffer":0,"byteOffset":11992,"byteLength":24},{"buffer":0,"byteOffset":12016,"byteLength":12},{"buffer":0,"byteOffset":12028,"byteLength":36},{"buffer":0,"byteOffset":12064,"byteLength":12},{"buffer":0,"byteOffset":12076,"byteLength":36},{"buffer":0,"byteOffset":12112,"byteLength":20},{"buffer":0,"byteOffset":12132,"byteLength":60},{"buffer":0,"byteOffset":12192,"byteLength":4},{"buffer":0,"byteOffset":12196,"byteLength":16}],"buffers":[{"byteLength":12212,"uri":"data:application/octet-stream;base64,"}],"accessors":[{"bufferView":0,"componentType":5126,"count":24,"max":[0.40625,0.28125,0.25],"min":[-0.40625,0.21875,-0.25],"type":"VEC3"},{"bufferView":1,"componentType":5126,"count":24,"max":[1,1,1],"min":[-1,-1,-1],"type":"VEC3"},{"bufferView":2,"componentType":5126,"count":24,"max":[0.4765625,0.4765625],"min":[0.125,0.25],"type":"VEC2"},{"bufferView":3,"componentType":5123,"count":36,"max":[23],"min":[0],"type":"SCALAR"},{"bufferView":4,"componentType":5126,"count":24,"max":[0.5,0.28125,0.5],"min":[-0.5,0.21875,-0.5],"type":"VEC3"},{"bufferView":5,"componentType":5126,"count":24,"max":[1,1,1],"min":[-1,-1,-1],"type":"VEC3"},{"bufferView":6,"componentType":5126,"count":24,"max":[0.5390625,0.2578125],"min":[0,0],"type":"VEC2"},{"bufferView":7,"componentType":5123,"count":36,"max":[23],"min":[0],"type":"SCALAR"},{"bufferView":8,"componentType":5126,"count":24,"max":[0.46875,0.28125,0.5],"min":[-0.46875,0.21875,-0.5],"type":"VEC3"},{"bufferView":9,"componentType":5126,"count":24,"max":[1,1,1],"min":[-1,-1,-1],"type":"VEC3"},{"bufferView":10,"componentType":5126,"count":24,"max":[0.5390625,0.421875],"min":[0,0],"type":"VEC2"},{"bufferView":11,"componentType":5123,"count":36,"max":[23],"min":[0],"type":"SCALAR"},{"bufferView":12,"componentType":5126,"count":24,"max":[0.40625,0.28125,0.125],"min":[-0.40625,0.21875,-0.125],"type":"VEC3"},{"bufferView":13,"componentType":5126,"count":24,"max":[1,1,1],"min":[-1,-1,-1],"type":"VEC3"},{"bufferView":14,"componentType":5126,"count":24,"max":[0.515625,0.4921875],"min":[0.234375,0],"type":"VEC2"},{"bufferView":15,"componentType":5123,"count":36,"max":[23],"min":[0],"type":"SCALAR"},{"bufferView":16,"componentType":5126,"count":24,"max":[0.40625,0.28125,0.125],"min":[-0.40625,0.21875,-0.125],"type":"VEC3"},{"bufferView":17,"componentType":5126,"count":24,"max":[1,1,1],"min":[-1,-1,-1],"type":"VEC3"},{"bufferView":18,"componentType":5126,"count":24,"max":[0.5859375,0.5078125],"min":[0,0.0390625],"type":"VEC2"},{"bufferView":19,"componentType":5123,"count":36,"max":[23],"min":[0],"type":"SCALAR"},{"bufferView":20,"componentType":5126,"count":24,"max":[0.0625,0.28125,0.5],"min":[-0.0625,0.21875,-0.5],"type":"VEC3"},{"bufferView":21,"componentType":5126,"count":24,"max":[1,1,1],"min":[-1,-1,-1],"type":"VEC3"},{"bufferView":22,"componentType":5126,"count":24,"max":[0.5390625,0.5078125],"min":[0.3203125,0],"type":"VEC2"},{"bufferView":23,"componentType":5123,"count":36,"max":[23],"min":[0],"type":"SCALAR"},{"bufferView":24,"componentType":5126,"count":24,"max":[0.46875,0.28125,0.4375],"min":[-0.46875,0.21875,-0.4375],"type":"VEC3"},{"bufferView":25,"componentType":5126,"count":24,"max":[1,1,1],"min":[-1,-1,-1],"type":"VEC3"},{"bufferView":26,"componentType":5126,"count":24,"max":[0.3828125,0.4921875],"min":[0,0.1328125],"type":"VEC2"},{"bufferView":27,"componentType":5123,"count":36,"max":[23],"min":[0],"type":"SCALAR"},{"bufferView":28,"componentType":5126,"count":24,"max":[0.46875,0.28125,0.4375],"min":[-0.46875,0.21875,-0.4375],"type":"VEC3"},{"bufferView":29,"componentType":5126,"count":24,"max":[1,1,1],"min":[-1,-1,-1],"type":"VEC3"},{"bufferView":30,"componentType":5126,"count":24,"max":[0.59375,0.4921875],"min":[0.125,0.25],"type":"VEC2"},{"bufferView":31,"componentType":5123,"count":36,"max":[23],"min":[0],"type":"SCALAR"},{"bufferView":32,"componentType":5126,"count":24,"max":[0.5,0.28125,0.5],"min":[-0.5,0.21875,-0.5],"type":"VEC3"},{"bufferView":33,"componentType":5126,"count":24,"max":[1,1,1],"min":[-1,-1,-1],"type":"VEC3"},{"bufferView":34,"componentType":5126,"count":24,"max":[0.4921875,0.4609375],"min":[0,0],"type":"VEC2"},{"bufferView":35,"componentType":5123,"count":36,"max":[23],"min":[0],"type":"SCALAR"},{"bufferView":36,"componentType":5126,"count":24,"max":[0.0625,0.265625,0.0625],"min":[-0.0625,0.234375,-0.0625],"type":"VEC3"},{"bufferView":37,"componentType":5126,"count":24,"max":[1,1,1],"min":[-1,-1,-1],"type":"VEC3"},{"bufferView":38,"componentType":5126,"count":24,"max":[0.625,0.875],"min":[0,0],"type":"VEC2"},{"bufferView":39,"componentType":5123,"count":36,"max":[23],"min":[0],"type":"SCALAR"},{"bufferView":40,"componentType":5126,"count":24,"max":[0.0625,0.265625,0.0625],"min":[-0.0625,0.234375,-0.0625],"type":"VEC3"},{"bufferView":41,"componentType":5126,"count":24,"max":[1,1,1],"min":[-1,-1,-1],"type":"VEC3"},{"bufferView":42,"componentType":5126,"count":24,"max":[0.625,0.875],"min":[0,0],"type":"VEC2"},{"bufferView":43,"componentType":5123,"count":36,"max":[23],"min":[0],"type":"SCALAR"},{"bufferView":44,"componentType":5126,"count":24,"max":[0.0625,0.265625,0.0625],"min":[-0.0625,0.234375,-0.0625],"type":"VEC3"},{"bufferView":45,"componentType":5126,"count":24,"max":[1,1,1],"min":[-1,-1,-1],"type":"VEC3"},{"bufferView":46,"componentType":5126,"count":24,"max":[0.625,0.875],"min":[0,0],"type":"VEC2"},{"bufferView":47,"componentType":5123,"count":36,"max":[23],"min":[0],"type":"SCALAR"},{"bufferView":48,"componentType":5126,"count":24,"max":[0.0625,0.265625,0.0625],"min":[-0.0625,0.234375,-0.0625],"type":"VEC3"},{"bufferView":49,"componentType":5126,"count":24,"max":[1,1,1],"min":[-1,-1,-1],"type":"VEC3"},{"bufferView":50,"componentType":5126,"count":24,"max":[0.625,0.875],"min":[0,0],"type":"VEC2"},{"bufferView":51,"componentType":5123,"count":36,"max":[23],"min":[0],"type":"SCALAR"},{"bufferView":52,"componentType":5126,"count":24,"max":[0.0625,0.265625,0.0625],"min":[-0.0625,0.234375,-0.0625],"type":"VEC3"},{"bufferView":53,"componentType":5126,"count":24,"max":[1,1,1],"min":[-1,-1,-1],"type":"VEC3"},{"bufferView":54,"componentType":5126,"count":24,"max":[0.625,0.875],"min":[0,0],"type":"VEC2"},{"bufferView":55,"componentType":5123,"count":36,"max":[23],"min":[0],"type":"SCALAR"},{"bufferView":56,"componentType":5126,"count":2,"max":[0.5],"min":[0],"type":"SCALAR"},{"bufferView":57,"componentType":5126,"count":2,"max":[0,0,0,1],"min":[0,-0.7071067690849304,0,0.7071067690849304],"type":"VEC4"},{"bufferView":58,"componentType":5126,"count":2,"max":[0.5],"min":[0],"type":"SCALAR"},{"bufferView":59,"componentType":5126,"count":2,"max":[0,0,0,1],"min":[0,-0.7071067690849304,0,0.7071067690849304],"type":"VEC4"},{"bufferView":60,"componentType":5126,"count":3,"max":[0.5],"min":[0],"type":"SCALAR"},{"bufferView":61,"componentType":5126,"count":3,"max":[0.015625,0,0],"min":[0,0,0],"type":"VEC3"},{"bufferView":62,"componentType":5126,"count":3,"max":[0.5],"min":[0],"type":"SCALAR"},{"bufferView":63,"componentType":5126,"count":3,"max":[0.015625,0,0],"min":[0,0,0],"type":"VEC3"},{"bufferView":64,"componentType":5126,"count":3,"max":[0.5],"min":[0],"type":"SCALAR"},{"bufferView":65,"componentType":5126,"count":3,"max":[0.015625,0,0],"min":[0,0,0],"type":"VEC3"},{"bufferView":66,"componentType":5126,"count":2,"max":[0.1666666716337204],"min":[0],"type":"SCALAR"},{"bufferView":67,"componentType":5126,"count":2,"max":[0,0,0],"min":[0,0,0],"type":"VEC3"},{"bufferView":68,"componentType":5126,"count":3,"max":[0.5],"min":[0],"type":"SCALAR"},{"bufferView":69,"componentType":5126,"count":3,"max":[0.015625,0,0],"min":[0,0,0],"type":"VEC3"},{"bufferView":70,"componentType":5126,"count":3,"max":[0.5],"min":[0],"type":"SCALAR"},{"bufferView":71,"componentType":5126,"count":3,"max":[0.015625,0,0],"min":[0,0,0],"type":"VEC3"},{"bufferView":72,"componentType":5126,"count":5,"max":[1],"min":[0],"type":"SCALAR"},{"bufferView":73,"componentType":5126,"count":5,"max":[0,0.0625,0],"min":[0,0,0],"type":"VEC3"},{"bufferView":74,"componentType":5126,"count":1,"max":[0],"min":[0],"type":"SCALAR"},{"bufferView":75,"componentType":5126,"count":1,"max":[0,-0.7071067690849304,0,0.7071067690849304],"min":[0,-0.7071067690849304,0,0.7071067690849304],"type":"VEC4"}],"materials":[{"pbrMetallicRoughness":{"metallicFactor":0,"roughnessFactor":1,"baseColorTexture":{"index":0}},"alphaMode":"MASK","alphaCutoff":0.05,"doubleSided":true},{"pbrMetallicRoughness":{"metallicFactor":0,"roughnessFactor":1,"baseColorTexture":{"index":1}},"alphaMode":"MASK","alphaCutoff":0.05,"doubleSided":true},{"pbrMetallicRoughness":{"metallicFactor":0,"roughnessFactor":1,"baseColorTexture":{"index":2}},"alphaMode":"MASK","alphaCutoff":0.05,"doubleSided":true},{"pbrMetallicRoughness":{"metallicFactor":0,"roughnessFactor":1,"baseColorTexture":{"index":3}},"alphaMode":"MASK","alphaCutoff":0.05,"doubleSided":true},{"pbrMetallicRoughness":{"metallicFactor":0,"roughnessFactor":1,"baseColorTexture":{"index":4}},"alphaMode":"MASK","alphaCutoff":0.05,"doubleSided":true},{"pbrMetallicRoughness":{"metallicFactor":0,"roughnessFactor":1,"baseColorTexture":{"index":5}},"alphaMode":"MASK","alphaCutoff":0.05,"doubleSided":true}],"textures":[{"sampler":0,"source":0,"name":"texture"},{"sampler":1,"source":1,"name":"-1"},{"sampler":2,"source":2,"name":"-2"},{"sampler":3,"source":3,"name":"0"},{"sampler":4,"source":4,"name":"1"},{"sampler":5,"source":5,"name":"TC"}],"samplers":[{"magFilter":9728,"minFilter":9728,"wrapS":33071,"wrapT":33071},{"magFilter":9728,"minFilter":9728,"wrapS":33071,"wrapT":33071},{"magFilter":9728,"minFilter":9728,"wrapS":33071,"wrapT":33071},{"magFilter":9728,"minFilter":9728,"wrapS":33071,"wrapT":33071},{"magFilter":9728,"minFilter":9728,"wrapS":33071,"wrapT":33071},{"magFilter":9728,"minFilter":9728,"wrapS":33071,"wrapT":33071}],"images":[{"mimeType":"image/png","uri":"data:image/png;base64,"},{"mimeType":"image/png","uri":"data:image/png;base64,"},{"mimeType":"image/png","uri":"data:image/png;base64,"},{"mimeType":"image/png","uri":"data:image/png;base64,"},{"mimeType":"image/png","uri":"data:image/png;base64,"},{"mimeType":"image/png","uri":"data:image/png;base64,"}],"meshes":[{"primitives":[{"mode":4,"attributes":{"POSITION":0,"NORMAL":1,"TEXCOORD_0":2},"indices":3,"material":0}]},{"primitives":[{"mode":4,"attributes":{"POSITION":4,"NORMAL":5,"TEXCOORD_0":6},"indices":7,"material":0}]},{"primitives":[{"mode":4,"attributes":{"POSITION":8,"NORMAL":9,"TEXCOORD_0":10},"indices":11,"material":0}]},{"primitives":[{"mode":4,"attributes":{"POSITION":12,"NORMAL":13,"TEXCOORD_0":14},"indices":15,"material":0}]},{"primitives":[{"mode":4,"attributes":{"POSITION":16,"NORMAL":17,"TEXCOORD_0":18},"indices":19,"material":0}]},{"primitives":[{"mode":4,"attributes":{"POSITION":20,"NORMAL":21,"TEXCOORD_0":22},"indices":23,"material":0}]},{"primitives":[{"mode":4,"attributes":{"POSITION":24,"NORMAL":25,"TEXCOORD_0":26},"indices":27,"material":0}]},{"primitives":[{"mode":4,"attributes":{"POSITION":28,"NORMAL":29,"TEXCOORD_0":30},"indices":31,"material":0}]},{"primitives":[{"mode":4,"attributes":{"POSITION":32,"NORMAL":33,"TEXCOORD_0":34},"indices":35,"material":0}]},{"primitives":[{"mode":4,"attributes":{"POSITION":36,"NORMAL":37,"TEXCOORD_0":38},"indices":39,"material":1}]},{"primitives":[{"mode":4,"attributes":{"POSITION":40,"NORMAL":41,"TEXCOORD_0":42},"indices":43,"material":2}]},{"primitives":[{"mode":4,"attributes":{"POSITION":44,"NORMAL":45,"TEXCOORD_0":46},"indices":47,"material":3}]},{"primitives":[{"mode":4,"attributes":{"POSITION":48,"NORMAL":49,"TEXCOORD_0":50},"indices":51,"material":4}]},{"primitives":[{"mode":4,"attributes":{"POSITION":52,"NORMAL":53,"TEXCOORD_0":54},"indices":55,"material":5}]}],"animations":[{"name":"door_close","samplers":[{"input":56,"output":57,"interpolation":"LINEAR"}],"channels":[{"sampler":0,"target":{"node":1,"path":"rotation"}}]},{"name":"door_open(unnecessary)","samplers":[{"input":58,"output":59,"interpolation":"LINEAR"}],"channels":[{"sampler":0,"target":{"node":1,"path":"rotation"}}]},{"name":"press_minus1","samplers":[{"input":60,"output":61,"interpolation":"LINEAR"}],"channels":[{"sampler":0,"target":{"node":12,"path":"translation"}}]},{"name":"press_minus2","samplers":[{"input":62,"output":63,"interpolation":"LINEAR"}],"channels":[{"sampler":0,"target":{"node":14,"path":"translation"}}]},{"name":"press_zero","samplers":[{"input":64,"output":65,"interpolation":"LINEAR"},{"input":66,"output":67,"interpolation":"LINEAR"}],"channels":[{"sampler":0,"target":{"node":16,"path":"translation"}},{"sampler":1,"target":{"node":22,"path":"translation"}}]},{"name":"press_one","samplers":[{"input":68,"output":69,"interpolation":"LINEAR"}],"channels":[{"sampler":0,"target":{"node":18,"path":"translation"}}]},{"name":"press_TC","samplers":[{"input":70,"output":71,"interpolation":"LINEAR"}],"channels":[{"sampler":0,"target":{"node":20,"path":"translation"}}]},{"name":"move","samplers":[{"input":72,"output":73,"interpolation":"STEP"},{"input":74,"output":75,"interpolation":"LINEAR"}],"channels":[{"sampler":0,"target":{"node":22,"path":"translation"}},{"sampler":1,"target":{"node":1,"path":"rotation"}}]}]}