{"asset":{"version":"2.0","generator":"Blockbench 5.0.7 glTF exporter"},"scenes":[{"nodes":[10],"name":"blockbench_export"}],"scene":0,"nodes":[{"name":"sphere-col","mesh":0},{"translation":[0,0.6875,0],"name":"head","children":[0]},{"name":"cuboid-col","mesh":1},{"name":"torso","children":[2]},{"translation":[0,-0.4375,0],"name":"cuboid-col","mesh":2},{"translation":[-0.1,0,0],"name":"Right_leg","children":[4]},{"translation":[0,-0.4375,0],"name":"cuboid-col","mesh":3},{"translation":[0.1,0,0],"name":"Left_leg","children":[6]},{"translation":[0,0.0625,0],"name":"cone-col","mesh":4},{"translation":[0,0.625,0],"name":"hat","children":[8]},{"translation":[0,0.5,0],"name":"all","children":[1,3,5,7,9]}],"bufferViews":[{"buffer":0,"byteOffset":0,"byteLength":3168,"target":34962,"byteStride":12},{"buffer":0,"byteOffset":3168,"byteLength":3168,"target":34962,"byteStride":12},{"buffer":0,"byteOffset":6336,"byteLength":2112,"target":34962,"byteStride":8},{"buffer":0,"byteOffset":8448,"byteLength":720,"target":34963},{"buffer":0,"byteOffset":9168,"byteLength":288,"target":34962,"byteStride":12},{"buffer":0,"byteOffset":9456,"byteLength":288,"target":34962,"byteStride":12},{"buffer":0,"byteOffset":9744,"byteLength":192,"target":34962,"byteStride":8},{"buffer":0,"byteOffset":9936,"byteLength":72,"target":34963},{"buffer":0,"byteOffset":10008,"byteLength":288,"target":34962,"byteStride":12},{"buffer":0,"byteOffset":10296,"byteLength":288,"target":34962,"byteStride":12},{"buffer":0,"byteOffset":10584,"byteLength":192,"target":34962,"byteStride":8},{"buffer":0,"byteOffset":10776,"byteLength":72,"target":34963},{"buffer":0,"byteOffset":10848,"byteLength":288,"target":34962,"byteStride":12},{"buffer":0,"byteOffset":11136,"byteLength":288,"target":34962,"byteStride":12},{"buffer":0,"byteOffset":11424,"byteLength":192,"target":34962,"byteStride":8},{"buffer":0,"byteOffset":11616,"byteLength":72,"target":34963},{"buffer":0,"byteOffset":11688,"byteLength":432,"target":34962,"byteStride":12},{"buffer":0,"byteOffset":12120,"byteLength":432,"target":34962,"byteStride":12},{"buffer":0,"byteOffset":12552,"byteLength":288,"target":34962,"byteStride":8},{"buffer":0,"byteOffset":12840,"byteLength":72,"target":34963},{"buffer":0,"byteOffset":12912,"byteLength":8},{"buffer":0,"byteOffset":12920,"byteLength":32},{"buffer":0,"byteOffset":12952,"byteLength":4},{"buffer":0,"byteOffset":12956,"byteLength":12},{"buffer":0,"byteOffset":12968,"byteLength":8},{"buffer":0,"byteOffset":12976,"byteLength":32},{"buffer":0,"byteOffset":13008,"byteLength":8},{"buffer":0,"byteOffset":13016,"byteLength":32},{"buffer":0,"byteOffset":13048,"byteLength":4},{"buffer":0,"byteOffset":13052,"byteLength":12},{"buffer":0,"byteOffset":13064,"byteLength":8},{"buffer":0,"byteOffset":13072,"byteLength":32},{"buffer":0,"byteOffset":13104,"byteLength":4},{"buffer":0,"byteOffset":13108,"byteLength":12},{"buffer":0,"byteOffset":13120,"byteLength":8},{"buffer":0,"byteOffset":13128,"byteLength":32},{"buffer":0,"byteOffset":13160,"byteLength":12},{"buffer":0,"byteOffset":13172,"byteLength":36}],"buffers":[{"byteLength":13208,"uri":"data:application/octet-stream;base64,"}],"accessors":[{"bufferView":0,"componentType":5126,"count":264,"max":[0.1875,0.1875,0.1875],"min":[-0.1875,-0.1875,-0.1875],"type":"VEC3"},{"bufferView":1,"componentType":5126,"count":264,"max":[0.9659264087677002,0.9659265279769897,0.9659264087677002],"min":[-0.9659264087677002,-0.9659265279769897,-0.9659264087677002],"type":"VEC3"},{"bufferView":2,"componentType":5126,"count":264,"max":[0.5861201286315918,0.40625],"min":[0.08581765741109848,0],"type":"VEC2"},{"bufferView":3,"componentType":5123,"count":360,"max":[263],"min":[0],"type":"SCALAR"},{"bufferView":4,"componentType":5126,"count":24,"max":[0.21875,0.5,0.125],"min":[-0.21875,0,-0.125],"type":"VEC3"},{"bufferView":5,"componentType":5126,"count":24,"max":[0.9967154860496521,1,0.9965457320213318],"min":[-0.9967154860496521,-1,-0.9965457320213318],"type":"VEC3"},{"bufferView":6,"componentType":5126,"count":24,"max":[0.390625,0.3125],"min":[0,0],"type":"VEC2"},{"bufferView":7,"componentType":5123,"count":36,"max":[23],"min":[0],"type":"SCALAR"},{"bufferView":8,"componentType":5126,"count":24,"max":[0.08749999850988388,0.4375,0.09375],"min":[-0.08749999850988388,-0.0625,-0.09375],"type":"VEC3"},{"bufferView":9,"componentType":5126,"count":24,"max":[1,1,1],"min":[-1,-1,-1],"type":"VEC3"},{"bufferView":10,"componentType":5126,"count":24,"max":[0.53125,0.53125],"min":[0,0.296875],"type":"VEC2"},{"bufferView":11,"componentType":5123,"count":36,"max":[23],"min":[0],"type":"SCALAR"},{"bufferView":12,"componentType":5126,"count":24,"max":[0.08749999850988388,0.4375,0.09375],"min":[-0.08749999850988388,-0.0625,-0.09375],"type":"VEC3"},{"bufferView":13,"componentType":5126,"count":24,"max":[1,1,1],"min":[-1,-1,-1],"type":"VEC3"},{"bufferView":14,"componentType":5126,"count":24,"max":[0.5625,0.53125],"min":[0.25,0.078125],"type":"VEC2"},{"bufferView":15,"componentType":5123,"count":36,"max":[23],"min":[0],"type":"SCALAR"},{"bufferView":16,"componentType":5126,"count":36,"max":[0.1875,0.4375,0.1875],"min":[-0.1875,0.0625,-0.1875],"type":"VEC3"},{"bufferView":17,"componentType":5126,"count":36,"max":[0.8944271802902222,0.4472135901451111,0.8944271802902222],"min":[-0.8944271802902222,0.44721347093582153,-0.8944271802902222],"type":"VEC3"},{"bufferView":18,"componentType":5126,"count":36,"max":[0.9291180968284607,0.9192625284194946],"min":[0.008381875231862068,0],"type":"VEC2"},{"bufferView":19,"componentType":5123,"count":36,"max":[35],"min":[0],"type":"SCALAR"},{"bufferView":20,"componentType":5126,"count":2,"max":[0.5],"min":[0],"type":"SCALAR"},{"bufferView":21,"componentType":5126,"count":2,"max":[-0.13002949953079224,0,0.01137610711157322,0.9914448857307434],"min":[-0.13052618503570557,-0.08641011267900467,0,0.9876720905303955],"type":"VEC4"},{"bufferView":22,"componentType":5126,"count":1,"max":[0],"min":[0],"type":"SCALAR"},{"bufferView":23,"componentType":5126,"count":1,"max":[0,0.668749988079071,-0.15625],"min":[0,0.668749988079071,-0.15625],"type":"VEC3"},{"bufferView":24,"componentType":5126,"count":2,"max":[0.5],"min":[0],"type":"SCALAR"},{"bufferView":25,"componentType":5126,"count":2,"max":[-0.10853127390146255,0.0779927596449852,0.007120234426110983,0.991927981376648],"min":[-0.10863377898931503,-0.06501439213752747,-0.008541596122086048,0.99099200963974],"type":"VEC4"},{"bufferView":26,"componentType":5126,"count":2,"max":[0.5],"min":[0],"type":"SCALAR"},{"bufferView":27,"componentType":5126,"count":2,"max":[0.18489348888397217,-0.008880369365215302,-0.06043528765439987,0.9777041673660278],"min":[-0.5959268808364868,-0.07909815013408661,-0.0991467610001564,0.7968451380729675],"type":"VEC4"},{"bufferView":28,"componentType":5126,"count":1,"max":[0],"min":[0],"type":"SCALAR"},{"bufferView":29,"componentType":5126,"count":1,"max":[-0.10000000149011612,0,0.0625],"min":[-0.10000000149011612,0,0.0625],"type":"VEC3"},{"bufferView":30,"componentType":5126,"count":2,"max":[0.5],"min":[0],"type":"SCALAR"},{"bufferView":31,"componentType":5126,"count":2,"max":[-0.012031910941004753,0.1006152480840683,-0.06891156733036041,0.9924631118774414],"min":[-0.014223958365619183,0.10032882541418076,-0.0905456393957138,0.9907236099243164],"type":"VEC4"},{"bufferView":32,"componentType":5126,"count":1,"max":[0],"min":[0],"type":"SCALAR"},{"bufferView":33,"componentType":5126,"count":1,"max":[0.10000000149011612,0,0.03125],"min":[0.10000000149011612,0,0.03125],"type":"VEC3"},{"bufferView":34,"componentType":5126,"count":2,"max":[0.5],"min":[0],"type":"SCALAR"},{"bufferView":35,"componentType":5126,"count":2,"max":[-0.0476108081638813,-0.10468055307865143,0.03821171447634697,0.9785048961639404],"min":[-0.1347360759973526,-0.6247559785842896,-0.11582901328802109,0.7784298658370972],"type":"VEC4"},{"bufferView":36,"componentType":5126,"count":3,"max":[0.5],"min":[0],"type":"SCALAR"},{"bufferView":37,"componentType":5126,"count":3,"max":[0.0625,0.800000011920929,-0.140625],"min":[0,0.737500011920929,-0.265625],"type":"VEC3"}],"materials":[{"pbrMetallicRoughness":{"metallicFactor":0,"roughnessFactor":1,"baseColorTexture":{"index":0}},"alphaMode":"MASK","alphaCutoff":0.05,"doubleSided":true},{"pbrMetallicRoughness":{"metallicFactor":0,"roughnessFactor":1,"baseColorTexture":{"index":1}},"alphaMode":"MASK","alphaCutoff":0.05,"doubleSided":true}],"textures":[{"sampler":0,"source":0,"name":"texture"},{"sampler":1,"source":1,"name":"texture"}],"samplers":[{"magFilter":9728,"minFilter":9728,"wrapS":33071,"wrapT":33071},{"magFilter":9728,"minFilter":9728,"wrapS":33071,"wrapT":33071}],"images":[{"mimeType":"image/png","uri":"data:image/png;base64,"},{"mimeType":"image/png","uri":"data:image/png;base64,"}],"meshes":[{"primitives":[{"mode":4,"attributes":{"POSITION":0,"NORMAL":1,"TEXCOORD_0":2},"indices":3,"material":0}]},{"primitives":[{"mode":4,"attributes":{"POSITION":4,"NORMAL":5,"TEXCOORD_0":6},"indices":7,"material":0}]},{"primitives":[{"mode":4,"attributes":{"POSITION":8,"NORMAL":9,"TEXCOORD_0":10},"indices":11,"material":0}]},{"primitives":[{"mode":4,"attributes":{"POSITION":12,"NORMAL":13,"TEXCOORD_0":14},"indices":15,"material":0}]},{"primitives":[{"mode":4,"attributes":{"POSITION":16,"NORMAL":17,"TEXCOORD_0":18},"indices":19,"material":1}]}],"animations":[{"name":"foreign_dance","samplers":[{"input":20,"output":21,"interpolation":"STEP"},{"input":22,"output":23,"interpolation":"STEP"},{"input":24,"output":25,"interpolation":"STEP"},{"input":26,"output":27,"interpolation":"STEP"},{"input":28,"output":29,"interpolation":"STEP"},{"input":30,"output":31,"interpolation":"STEP"},{"input":32,"output":33,"interpolation":"STEP"},{"input":34,"output":35,"interpolation":"STEP"},{"input":36,"output":37,"interpolation":"STEP"}],"channels":[{"sampler":0,"target":{"node":1,"path":"rotation"}},{"sampler":1,"target":{"node":1,"path":"translation"}},{"sampler":2,"target":{"node":3,"path":"rotation"}},{"sampler":3,"target":{"node":5,"path":"rotation"}},{"sampler":4,"target":{"node":5,"path":"translation"}},{"sampler":5,"target":{"node":7,"path":"rotation"}},{"sampler":6,"target":{"node":7,"path":"translation"}},{"sampler":7,"target":{"node":9,"path":"rotation"}},{"sampler":8,"target":{"node":9,"path":"translation"}}]}]}