{"asset":{"version":"2.0","generator":"Blockbench 4.12.5 glTF exporter"},"scenes":[{"nodes":[21],"name":"blockbench_export"}],"scene":0,"nodes":[{"translation":[0,0.046875,0],"name":"cuboid-col","mesh":0},{"name":"torso","children":[0]},{"name":"cuboid-col","mesh":1},{"translation":[-0.1,0,0],"name":"Right_leg","children":[2]},{"name":"cuboid-col","mesh":2},{"translation":[0.1,0,0],"name":"Left_leg","children":[4]},{"translation":[0,0.0625,0],"name":"sphere-col","mesh":3},{"rotation":[-0.25881904510252074,0,0,0.9659258262890683],"translation":[-0.03125,1.53125,-0.109375],"name":"sphere-col","mesh":4},{"rotation":[0.059948390897970605,0.7082576043193276,-0.09569529665709636,0.6968642382489587],"translation":[0,1.4375,-0.015625],"name":"sphere-col","mesh":5},{"rotation":[0.05986810264195919,-0.6933209743994908,0.09230165047402533,0.7121813266742982],"translation":[0,1.4375,-0.028125],"name":"sphere-col","mesh":6},{"rotation":[0.18004678358218063,0.680880263526803,-0.217229094903024,0.6758674003005293],"translation":[0.0625,1.484375,-0.015625],"name":"sphere-col","mesh":7},{"rotation":[0.256765315737163,-0.6397939975435083,0.28262561313968415,0.6669767433270142],"translation":[-0.09375,1.46875,-0.090625],"name":"sphere-col","mesh":8},{"rotation":[-0.5177958291135473,0.3013562151754444,-0.20135978538444357,0.7749362217354898],"translation":[-0.1875,1.46875,-0.00625],"name":"sphere-col","mesh":9},{"rotation":[-0.30602617292828277,-0.5659010369157333,0.6565439926912392,0.39376894692397024],"translation":[0.09375,1.109375,-0.06875],"name":"sphere-col","mesh":10},{"rotation":[0,-1,0,6.123233995736766e-17],"translation":[0,-1.28125,0],"name":"hair","children":[7,8,9,10,11,12,13]},{"translation":[0,0.6875,0],"name":"head","children":[6,14]},{"rotation":[0.01888113976201367,0.006877943204178106,-0.08679035369092675,0.996023910839881],"translation":[0.01921250000000002,0.300819375,-0.009104375],"name":"cuboid-col","mesh":11},{"translation":[-0.2848375,0.246055625,-0.006520625],"name":"Right_arm","children":[16]},{"rotation":[0.0017445832277304236,-0.022629863430232322,0.08414850276877274,0.9961946974323165],"translation":[-0.004941250000000008,0.05041687500000003,0.000083125],"name":"cuboid-col","mesh":12},{"translation":[0.27056625,0.496458125,-0.000083125],"name":"Left_arm","children":[18]},{"translation":[0,0.53125,0],"name":"all","children":[1,3,5,15,17,19]},{"children":[20]}],"bufferViews":[{"buffer":0,"byteOffset":0,"byteLength":288,"target":34962,"byteStride":12},{"buffer":0,"byteOffset":288,"byteLength":288,"target":34962,"byteStride":12},{"buffer":0,"byteOffset":576,"byteLength":192,"target":34962,"byteStride":8},{"buffer":0,"byteOffset":768,"byteLength":72,"target":34963},{"buffer":0,"byteOffset":840,"byteLength":288,"target":34962,"byteStride":12},{"buffer":0,"byteOffset":1128,"byteLength":288,"target":34962,"byteStride":12},{"buffer":0,"byteOffset":1416,"byteLength":192,"target":34962,"byteStride":8},{"buffer":0,"byteOffset":1608,"byteLength":72,"target":34963},{"buffer":0,"byteOffset":1680,"byteLength":288,"target":34962,"byteStride":12},{"buffer":0,"byteOffset":1968,"byteLength":288,"target":34962,"byteStride":12},{"buffer":0,"byteOffset":2256,"byteLength":192,"target":34962,"byteStride":8},{"buffer":0,"byteOffset":2448,"byteLength":72,"target":34963},{"buffer":0,"byteOffset":2520,"byteLength":3168,"target":34962,"byteStride":12},{"buffer":0,"byteOffset":5688,"byteLength":3168,"target":34962,"byteStride":12},{"buffer":0,"byteOffset":8856,"byteLength":2112,"target":34962,"byteStride":8},{"buffer":0,"byteOffset":10968,"byteLength":720,"target":34963},{"buffer":0,"byteOffset":11688,"byteLength":720,"target":34962,"byteStride":12},{"buffer":0,"byteOffset":12408,"byteLength":720,"target":34962,"byteStride":12},{"buffer":0,"byteOffset":13128,"byteLength":480,"target":34962,"byteStride":8},{"buffer":0,"byteOffset":13608,"byteLength":144,"target":34963},{"buffer":0,"byteOffset":13752,"byteLength":720,"target":34962,"byteStride":12},{"buffer":0,"byteOffset":14472,"byteLength":720,"target":34962,"byteStride":12},{"buffer":0,"byteOffset":15192,"byteLength":480,"target":34962,"byteStride":8},{"buffer":0,"byteOffset":15672,"byteLength":144,"target":34963},{"buffer":0,"byteOffset":15816,"byteLength":720,"target":34962,"byteStride":12},{"buffer":0,"byteOffset":16536,"byteLength":720,"target":34962,"byteStride":12},{"buffer":0,"byteOffset":17256,"byteLength":480,"target":34962,"byteStride":8},{"buffer":0,"byteOffset":17736,"byteLength":144,"target":34963},{"buffer":0,"byteOffset":17880,"byteLength":168,"target":34962,"byteStride":12},{"buffer":0,"byteOffset":18048,"byteLength":168,"target":34962,"byteStride":12},{"buffer":0,"byteOffset":18216,"byteLength":112,"target":34962,"byteStride":8},{"buffer":0,"byteOffset":18328,"byteLength":36,"target":34963},{"buffer":0,"byteOffset":18364,"byteLength":204,"target":34962,"byteStride":12},{"buffer":0,"byteOffset":18568,"byteLength":204,"target":34962,"byteStride":12},{"buffer":0,"byteOffset":18772,"byteLength":136,"target":34962,"byteStride":8},{"buffer":0,"byteOffset":18908,"byteLength":44,"target":34963},{"buffer":0,"byteOffset":18952,"byteLength":216,"target":34962,"byteStride":12},{"buffer":0,"byteOffset":19168,"byteLength":216,"target":34962,"byteStride":12},{"buffer":0,"byteOffset":19384,"byteLength":144,"target":34962,"byteStride":8},{"buffer":0,"byteOffset":19528,"byteLength":36,"target":34963},{"buffer":0,"byteOffset":19564,"byteLength":216,"target":34962,"byteStride":12},{"buffer":0,"byteOffset":19780,"byteLength":216,"target":34962,"byteStride":12},{"buffer":0,"byteOffset":19996,"byteLength":144,"target":34962,"byteStride":8},{"buffer":0,"byteOffset":20140,"byteLength":36,"target":34963},{"buffer":0,"byteOffset":20176,"byteLength":288,"target":34962,"byteStride":12},{"buffer":0,"byteOffset":20464,"byteLength":288,"target":34962,"byteStride":12},{"buffer":0,"byteOffset":20752,"byteLength":192,"target":34962,"byteStride":8},{"buffer":0,"byteOffset":20944,"byteLength":72,"target":34963},{"buffer":0,"byteOffset":21016,"byteLength":288,"target":34962,"byteStride":12},{"buffer":0,"byteOffset":21304,"byteLength":288,"target":34962,"byteStride":12},{"buffer":0,"byteOffset":21592,"byteLength":192,"target":34962,"byteStride":8},{"buffer":0,"byteOffset":21784,"byteLength":72,"target":34963},{"buffer":0,"byteOffset":21856,"byteLength":20},{"buffer":0,"byteOffset":21876,"byteLength":80},{"buffer":0,"byteOffset":21956,"byteLength":24},{"buffer":0,"byteOffset":21980,"byteLength":72},{"buffer":0,"byteOffset":22052,"byteLength":12},{"buffer":0,"byteOffset":22064,"byteLength":48},{"buffer":0,"byteOffset":22112,"byteLength":16},{"buffer":0,"byteOffset":22128,"byteLength":48},{"buffer":0,"byteOffset":22176,"byteLength":16},{"buffer":0,"byteOffset":22192,"byteLength":64},{"buffer":0,"byteOffset":22256,"byteLength":8},{"buffer":0,"byteOffset":22264,"byteLength":24},{"buffer":0,"byteOffset":22288,"byteLength":12},{"buffer":0,"byteOffset":22300,"byteLength":36},{"buffer":0,"byteOffset":22336,"byteLength":12},{"buffer":0,"byteOffset":22348,"byteLength":48},{"buffer":0,"byteOffset":22396,"byteLength":12},{"buffer":0,"byteOffset":22408,"byteLength":36},{"buffer":0,"byteOffset":22444,"byteLength":20},{"buffer":0,"byteOffset":22464,"byteLength":60},{"buffer":0,"byteOffset":22524,"byteLength":20},{"buffer":0,"byteOffset":22544,"byteLength":80},{"buffer":0,"byteOffset":22624,"byteLength":16},{"buffer":0,"byteOffset":22640,"byteLength":48},{"buffer":0,"byteOffset":22688,"byteLength":12},{"buffer":0,"byteOffset":22700,"byteLength":48},{"buffer":0,"byteOffset":22748,"byteLength":8},{"buffer":0,"byteOffset":22756,"byteLength":24},{"buffer":0,"byteOffset":22780,"byteLength":8},{"buffer":0,"byteOffset":22788,"byteLength":24},{"buffer":0,"byteOffset":22812,"byteLength":8},{"buffer":0,"byteOffset":22820,"byteLength":32},{"buffer":0,"byteOffset":22852,"byteLength":8},{"buffer":0,"byteOffset":22860,"byteLength":24},{"buffer":0,"byteOffset":22884,"byteLength":16},{"buffer":0,"byteOffset":22900,"byteLength":48},{"buffer":0,"byteOffset":22948,"byteLength":16},{"buffer":0,"byteOffset":22964,"byteLength":64},{"buffer":0,"byteOffset":23028,"byteLength":12},{"buffer":0,"byteOffset":23040,"byteLength":36},{"buffer":0,"byteOffset":23076,"byteLength":16},{"buffer":0,"byteOffset":23092,"byteLength":48}],"buffers":[{"byteLength":23140,"uri":"data:application/octet-stream;base64,"}],"accessors":[{"bufferView":0,"componentType":5126,"count":24,"max":[0.21250000596046448,0.515625,0.125],"min":[-0.21250000596046448,-0.015625,-0.125],"type":"VEC3"},{"bufferView":1,"componentType":5126,"count":24,"max":[0.9950371980667114,1,0.9969383478164673],"min":[-0.9950371980667114,-1,-0.9969383478164673],"type":"VEC3"},{"bufferView":2,"componentType":5126,"count":24,"max":[0.390625,0.3125],"min":[0,0],"type":"VEC2"},{"bufferView":3,"componentType":5123,"count":36,"max":[23],"min":[0],"type":"SCALAR"},{"bufferView":4,"componentType":5126,"count":24,"max":[0.08749999850988388,0.03125,0.09375],"min":[-0.08749999850988388,-0.53125,-0.09375],"type":"VEC3"},{"bufferView":5,"componentType":5126,"count":24,"max":[1,1,1],"min":[-1,-1,-1],"type":"VEC3"},{"bufferView":6,"componentType":5126,"count":24,"max":[0.53125,0.53125],"min":[0,0.296875],"type":"VEC2"},{"bufferView":7,"componentType":5123,"count":36,"max":[23],"min":[0],"type":"SCALAR"},{"bufferView":8,"componentType":5126,"count":24,"max":[0.08749999850988388,0.03125,0.09375],"min":[-0.08749999850988388,-0.53125,-0.09375],"type":"VEC3"},{"bufferView":9,"componentType":5126,"count":24,"max":[1,1,1],"min":[-1,-1,-1],"type":"VEC3"},{"bufferView":10,"componentType":5126,"count":24,"max":[0.5625,0.53125],"min":[0.25,0.078125],"type":"VEC2"},{"bufferView":11,"componentType":5123,"count":36,"max":[23],"min":[0],"type":"SCALAR"},{"bufferView":12,"componentType":5126,"count":264,"max":[0.1875,0.1875,0.1875],"min":[-0.1875,-0.1875,-0.1875],"type":"VEC3"},{"bufferView":13,"componentType":5126,"count":264,"max":[0.9659264087677002,0.9659265279769897,0.9659264087677002],"min":[-0.9659264087677002,-0.9659265279769897,-0.9659264087677002],"type":"VEC3"},{"bufferView":14,"componentType":5126,"count":264,"max":[0.5861201286315918,0.40625],"min":[0.08581765741109848,0],"type":"VEC2"},{"bufferView":15,"componentType":5123,"count":360,"max":[263],"min":[0],"type":"SCALAR"},{"bufferView":16,"componentType":5126,"count":60,"max":[0.296875,0.07848187536001205,0.22750812768936157],"min":[-0.21875,-0.2793281376361847,-0.19895124435424805],"type":"VEC3"},{"bufferView":17,"componentType":5126,"count":60,"max":[0.8803633451461792,0.857352077960968,0.9494324922561646],"min":[-0.992531418800354,-0.7090789079666138,-0.9080102443695068],"type":"VEC3"},{"bufferView":18,"componentType":5126,"count":60,"max":[0.6837242245674133,0.53125],"min":[0.005286875180900097,0],"type":"VEC2"},{"bufferView":19,"componentType":5123,"count":72,"max":[59],"min":[0],"type":"SCALAR"},{"bufferView":20,"componentType":5126,"count":60,"max":[0.1687762439250946,0.1365174949169159,0.21426250040531158],"min":[-0.125,-0.1484375,-0.004230624996125698],"type":"VEC3"},{"bufferView":21,"componentType":5126,"count":60,"max":[0.9997648000717163,0.9981492161750793,1],"min":[-0.6745591759681702,-0.9997027516365051,-0.9873434901237488],"type":"VEC3"},{"bufferView":22,"componentType":5126,"count":60,"max":[0.6309468746185303,0.640625],"min":[0,0],"type":"VEC2"},{"bufferView":23,"componentType":5123,"count":72,"max":[59],"min":[0],"type":"SCALAR"},{"bufferView":24,"componentType":5126,"count":60,"max":[0.1687762439250946,0.1365174949169159,0.21426250040531158],"min":[-0.125,-0.1484375,-0.004230624996125698],"type":"VEC3"},{"bufferView":25,"componentType":5126,"count":60,"max":[0.9997648000717163,0.9981492161750793,1],"min":[-0.6745591759681702,-0.9997027516365051,-0.9873434901237488],"type":"VEC3"},{"bufferView":26,"componentType":5126,"count":60,"max":[0.6309468746185303,0.6459412574768066],"min":[0.06713750213384628,0],"type":"VEC2"},{"bufferView":27,"componentType":5123,"count":72,"max":[59],"min":[0],"type":"SCALAR"},{"bufferView":28,"componentType":5126,"count":14,"max":[0.1657474935054779,0.13037562370300293,0.2428787499666214],"min":[-0.125,-0.1484375,0.06093812361359596],"type":"VEC3"},{"bufferView":29,"componentType":5126,"count":14,"max":[0.23508571088314056,0.9703033566474915,0.9979215264320374],"min":[-0.03971851244568825,-0.5451142191886902,-0.8267999291419983],"type":"VEC3"},{"bufferView":30,"componentType":5126,"count":14,"max":[0.6707384586334229,0.484375],"min":[0.484375,0.1875],"type":"VEC2"},{"bufferView":31,"componentType":5123,"count":18,"max":[13],"min":[0],"type":"SCALAR"},{"bufferView":32,"componentType":5126,"count":17,"max":[0.25092312693595886,0.13457125425338745,0.2007187455892563],"min":[-0.12466312199831009,-0.11102937161922455,0.08345875144004822],"type":"VEC3"},{"bufferView":33,"componentType":5126,"count":17,"max":[0.9797841906547546,0.6294226050376892,0.9949420690536499],"min":[-0.007604061625897884,-0.31971660256385803,-0.947482705116272],"type":"VEC3"},{"bufferView":34,"componentType":5126,"count":17,"max":[0.6512170433998108,0.6899454593658447],"min":[0,0.265625],"type":"VEC2"},{"bufferView":35,"componentType":5123,"count":21,"max":[16],"min":[0],"type":"SCALAR"},{"bufferView":36,"componentType":5126,"count":18,"max":[0.3979037404060364,0.15981687605381012,0.1962331235408783],"min":[-0.034152500331401825,-0.1061168760061264,-0.21782875061035156],"type":"VEC3"},{"bufferView":37,"componentType":5126,"count":18,"max":[0.5738282799720764,0.9789618253707886,0.7493061423301697],"min":[-0.5699941515922546,-0.8435079455375671,-0.9248750805854797],"type":"VEC3"},{"bufferView":38,"componentType":5126,"count":18,"max":[0.6985270380973816,0.5625],"min":[0,0.08003407716751099],"type":"VEC2"},{"bufferView":39,"componentType":5123,"count":18,"max":[17],"min":[0],"type":"SCALAR"},{"bufferView":40,"componentType":5126,"count":18,"max":[0.3979037404060364,0.14225375652313232,0.1962331235408783],"min":[-0.03141312673687935,-0.1061168760061264,-0.2070656269788742],"type":"VEC3"},{"bufferView":41,"componentType":5126,"count":18,"max":[0.4532570242881775,0.9877532720565796,0.7561472654342651],"min":[-0.4982454180717468,-0.8585122227668762,-0.9134561419487],"type":"VEC3"},{"bufferView":42,"componentType":5126,"count":18,"max":[0.7141520380973816,0.59375],"min":[0.0033693748991936445,0],"type":"VEC2"},{"bufferView":43,"componentType":5123,"count":18,"max":[17],"min":[0],"type":"SCALAR"},{"bufferView":44,"componentType":5126,"count":24,"max":[0.093513123691082,0.02831687591969967,0.08750125020742416],"min":[-0.04398687556385994,-0.534183144569397,-0.049998749047517776],"type":"VEC3"},{"bufferView":45,"componentType":5126,"count":24,"max":[1,1,1],"min":[-1,-1,-1],"type":"VEC3"},{"bufferView":46,"componentType":5126,"count":24,"max":[0.546875,0.609375],"min":[0.046875,0.078125],"type":"VEC2"},{"bufferView":47,"componentType":5123,"count":36,"max":[23],"min":[0],"type":"SCALAR"},{"bufferView":48,"componentType":5126,"count":24,"max":[0.046511873602867126,0.027850624173879623,0.06959249824285507],"min":[-0.09098812192678452,-0.5346493721008301,-0.06790749728679657],"type":"VEC3"},{"bufferView":49,"componentType":5126,"count":24,"max":[1,1,1],"min":[-1,-1,-1],"type":"VEC3"},{"bufferView":50,"componentType":5126,"count":24,"max":[0.46875,0.5625],"min":[0,0.078125],"type":"VEC2"},{"bufferView":51,"componentType":5123,"count":36,"max":[23],"min":[0],"type":"SCALAR"},{"bufferView":52,"componentType":5126,"count":5,"max":[3.083329916000366],"min":[0],"type":"SCALAR"},{"bufferView":53,"componentType":5126,"count":5,"max":[0.258819043636322,0,0,1],"min":[-0.13052618503570557,0,0,0.9659258127212524],"type":"VEC4"},{"bufferView":54,"componentType":5126,"count":6,"max":[1.25],"min":[0],"type":"SCALAR"},{"bufferView":55,"componentType":5126,"count":6,"max":[0,0.546875,0],"min":[0,0.53125,0],"type":"VEC3"},{"bufferView":56,"componentType":5126,"count":3,"max":[1.2083333730697632],"min":[0],"type":"SCALAR"},{"bufferView":57,"componentType":5126,"count":3,"max":[0.23081625998020172,0,0.2047145664691925,1],"min":[0,-0.8923990726470947,-0.1830127090215683,-0.9384356737136841],"type":"VEC4"},{"bufferView":58,"componentType":5126,"count":4,"max":[1.4583333730697632],"min":[0],"type":"SCALAR"},{"bufferView":59,"componentType":5126,"count":4,"max":[1,1.274999976158142,1],"min":[0,0.375,1],"type":"VEC3"},{"bufferView":60,"componentType":5126,"count":4,"max":[1.2083333730697632],"min":[0],"type":"SCALAR"},{"bufferView":61,"componentType":5126,"count":4,"max":[0.08785796165466309,0,0.2186604142189026,1],"min":[-0.11253424733877182,-0.5061740279197693,-0.11546297371387482,0.8296122550964355],"type":"VEC4"},{"bufferView":62,"componentType":5126,"count":2,"max":[1.0833333730697632],"min":[0],"type":"SCALAR"},{"bufferView":63,"componentType":5126,"count":2,"max":[-0.10000000149011612,0,0],"min":[-0.2874999940395355,0,0],"type":"VEC3"},{"bufferView":64,"componentType":5126,"count":3,"max":[1.4583333730697632],"min":[0],"type":"SCALAR"},{"bufferView":65,"componentType":5126,"count":3,"max":[1,1.2999999523162842,1],"min":[1,-0.20000000298023224,0.20000000298023224],"type":"VEC3"},{"bufferView":66,"componentType":5126,"count":3,"max":[1.4583333730697632],"min":[0],"type":"SCALAR"},{"bufferView":67,"componentType":5126,"count":3,"max":[0,0,0,1],"min":[-0.9978589415550232,0,0,0.06540312618017197],"type":"VEC4"},{"bufferView":68,"componentType":5126,"count":3,"max":[1.4583333730697632],"min":[0],"type":"SCALAR"},{"bufferView":69,"componentType":5126,"count":3,"max":[0.10000000149011612,0,0],"min":[0.10000000149011612,-0.625,0],"type":"VEC3"},{"bufferView":70,"componentType":5126,"count":5,"max":[1.4583333730697632],"min":[0],"type":"SCALAR"},{"bufferView":71,"componentType":5126,"count":5,"max":[1.2999999523162842,1,1],"min":[0.4000000059604645,1,1],"type":"VEC3"},{"bufferView":72,"componentType":5126,"count":5,"max":[1.4583333730697632],"min":[0],"type":"SCALAR"},{"bufferView":73,"componentType":5126,"count":5,"max":[0.792972981929779,0.06700897961854935,0,1],"min":[-0.12619896233081818,0,-0.08037511259317398,0.6029906868934631],"type":"VEC4"},{"bufferView":74,"componentType":5126,"count":4,"max":[1.4583333730697632],"min":[0],"type":"SCALAR"},{"bufferView":75,"componentType":5126,"count":4,"max":[1,1,1],"min":[0.10000000149011612,1,0.6000000238418579],"type":"VEC3"},{"bufferView":76,"componentType":5126,"count":3,"max":[1.2083333730697632],"min":[0],"type":"SCALAR"},{"bufferView":77,"componentType":5126,"count":3,"max":[0,-0.5187732577323914,0,0.36243805289268494],"min":[0,-1,0,-0.8549118638038635],"type":"VEC4"},{"bufferView":78,"componentType":5126,"count":2,"max":[0.75],"min":[0],"type":"SCALAR"},{"bufferView":79,"componentType":5126,"count":2,"max":[0,-1.21875,0],"min":[0,-1.28125,0],"type":"VEC3"},{"bufferView":80,"componentType":5126,"count":2,"max":[1.4583333730697632],"min":[0],"type":"SCALAR"},{"bufferView":81,"componentType":5126,"count":2,"max":[1,1,1],"min":[1,1,0.4000000059604645],"type":"VEC3"},{"bufferView":82,"componentType":5126,"count":2,"max":[0.25],"min":[0],"type":"SCALAR"},{"bufferView":83,"componentType":5126,"count":2,"max":[0,0,0,1],"min":[0,0,-0.13052618503570557,0.9914448857307434],"type":"VEC4"},{"bufferView":84,"componentType":5126,"count":2,"max":[0.25],"min":[0],"type":"SCALAR"},{"bufferView":85,"componentType":5126,"count":2,"max":[-0.2848375141620636,0.27730563282966614,-0.006520625203847885],"min":[-0.3785875141620636,0.24605561792850494,-0.006520625203847885],"type":"VEC3"},{"bufferView":86,"componentType":5126,"count":4,"max":[1.4583333730697632],"min":[0],"type":"SCALAR"},{"bufferView":87,"componentType":5126,"count":4,"max":[1,1,1],"min":[1,0.20000000298023224,1],"type":"VEC3"},{"bufferView":88,"componentType":5126,"count":4,"max":[1.2083333730697632],"min":[0],"type":"SCALAR"},{"bufferView":89,"componentType":5126,"count":4,"max":[0.2811458110809326,0.3700673580169678,0,1],"min":[-0.30309852957725525,-0.19213975965976715,-0.9324061274528503,-0.042807262390851974],"type":"VEC4"},{"bufferView":90,"componentType":5126,"count":3,"max":[1],"min":[0],"type":"SCALAR"},{"bufferView":91,"componentType":5126,"count":3,"max":[0.33306625485420227,0.49645811319351196,-0.00008312499994644895],"min":[0.27056625485420227,0.37145811319351196,-0.06258312612771988],"type":"VEC3"},{"bufferView":92,"componentType":5126,"count":4,"max":[1.4583333730697632],"min":[0],"type":"SCALAR"},{"bufferView":93,"componentType":5126,"count":4,"max":[1,1,1],"min":[1,-0.9750000238418579,-0.10000000149011612],"type":"VEC3"}],"materials":[{"pbrMetallicRoughness":{"metallicFactor":0,"roughnessFactor":1,"baseColorTexture":{"index":0}},"alphaMode":"MASK","alphaCutoff":0.05,"doubleSided":true},{"pbrMetallicRoughness":{"metallicFactor":0,"roughnessFactor":1,"baseColorTexture":{"index":1}},"alphaMode":"MASK","alphaCutoff":0.05,"doubleSided":true}],"textures":[{"sampler":0,"source":0,"name":"SE1.png"},{"sampler":1,"source":1,"name":"texture"}],"samplers":[{"magFilter":9728,"minFilter":9728,"wrapS":33071,"wrapT":33071},{"magFilter":9728,"minFilter":9728,"wrapS":33071,"wrapT":33071}],"images":[{"mimeType":"image/png","uri":"data:image/png;base64,"},{"mimeType":"image/png","uri":"data:image/png;base64,"}],"meshes":[{"primitives":[{"mode":4,"attributes":{"POSITION":0,"NORMAL":1,"TEXCOORD_0":2},"indices":3,"material":0}]},{"primitives":[{"mode":4,"attributes":{"POSITION":4,"NORMAL":5,"TEXCOORD_0":6},"indices":7,"material":0}]},{"primitives":[{"mode":4,"attributes":{"POSITION":8,"NORMAL":9,"TEXCOORD_0":10},"indices":11,"material":0}]},{"primitives":[{"mode":4,"attributes":{"POSITION":12,"NORMAL":13,"TEXCOORD_0":14},"indices":15,"material":0}]},{"primitives":[{"mode":4,"attributes":{"POSITION":16,"NORMAL":17,"TEXCOORD_0":18},"indices":19,"material":1}]},{"primitives":[{"mode":4,"attributes":{"POSITION":20,"NORMAL":21,"TEXCOORD_0":22},"indices":23,"material":1}]},{"primitives":[{"mode":4,"attributes":{"POSITION":24,"NORMAL":25,"TEXCOORD_0":26},"indices":27,"material":1}]},{"primitives":[{"mode":4,"attributes":{"POSITION":28,"NORMAL":29,"TEXCOORD_0":30},"indices":31,"material":1}]},{"primitives":[{"mode":4,"attributes":{"POSITION":32,"NORMAL":33,"TEXCOORD_0":34},"indices":35,"material":1}]},{"primitives":[{"mode":4,"attributes":{"POSITION":36,"NORMAL":37,"TEXCOORD_0":38},"indices":39,"material":1}]},{"primitives":[{"mode":4,"attributes":{"POSITION":40,"NORMAL":41,"TEXCOORD_0":42},"indices":43,"material":1}]},{"primitives":[{"mode":4,"attributes":{"POSITION":44,"NORMAL":45,"TEXCOORD_0":46},"indices":47,"material":0}]},{"primitives":[{"mode":4,"attributes":{"POSITION":48,"NORMAL":49,"TEXCOORD_0":50},"indices":51,"material":0}]}],"animations":[{"name":"head1","samplers":[{"input":52,"output":53,"interpolation":"STEP"}],"channels":[{"sampler":0,"target":{"node":15,"path":"rotation"}}]},{"name":"pear","samplers":[{"input":54,"output":55,"interpolation":"STEP"},{"input":56,"output":57,"interpolation":"STEP"},{"input":58,"output":59,"interpolation":"STEP"},{"input":60,"output":61,"interpolation":"STEP"},{"input":62,"output":63,"interpolation":"STEP"},{"input":64,"output":65,"interpolation":"STEP"},{"input":66,"output":67,"interpolation":"STEP"},{"input":68,"output":69,"interpolation":"STEP"},{"input":70,"output":71,"interpolation":"STEP"},{"input":72,"output":73,"interpolation":"STEP"},{"input":74,"output":75,"interpolation":"STEP"},{"input":76,"output":77,"interpolation":"STEP"},{"input":78,"output":79,"interpolation":"STEP"},{"input":80,"output":81,"interpolation":"STEP"},{"input":82,"output":83,"interpolation":"STEP"},{"input":84,"output":85,"interpolation":"STEP"},{"input":86,"output":87,"interpolation":"STEP"},{"input":88,"output":89,"interpolation":"STEP"},{"input":90,"output":91,"interpolation":"STEP"},{"input":92,"output":93,"interpolation":"STEP"}],"channels":[{"sampler":0,"target":{"node":20,"path":"translation"}},{"sampler":1,"target":{"node":1,"path":"rotation"}},{"sampler":2,"target":{"node":1,"path":"scale"}},{"sampler":3,"target":{"node":3,"path":"rotation"}},{"sampler":4,"target":{"node":3,"path":"translation"}},{"sampler":5,"target":{"node":3,"path":"scale"}},{"sampler":6,"target":{"node":5,"path":"rotation"}},{"sampler":7,"target":{"node":5,"path":"translation"}},{"sampler":8,"target":{"node":5,"path":"scale"}},{"sampler":9,"target":{"node":15,"path":"rotation"}},{"sampler":10,"target":{"node":15,"path":"scale"}},{"sampler":11,"target":{"node":14,"path":"rotation"}},{"sampler":12,"target":{"node":14,"path":"translation"}},{"sampler":13,"target":{"node":14,"path":"scale"}},{"sampler":14,"target":{"node":17,"path":"rotation"}},{"sampler":15,"target":{"node":17,"path":"translation"}},{"sampler":16,"target":{"node":17,"path":"scale"}},{"sampler":17,"target":{"node":19,"path":"rotation"}},{"sampler":18,"target":{"node":19,"path":"translation"}},{"sampler":19,"target":{"node":19,"path":"scale"}}]}]}