{"asset":{"version":"2.0","generator":"Blockbench 4.11.2 glTF exporter"},"scenes":[{"nodes":[1],"name":"blockbench_export"}],"scene":0,"nodes":[{"translation":[-0.07500000000000001,0.1875,0.25],"name":"cylinder-col","mesh":0},{"children":[0]}],"bufferViews":[{"buffer":0,"byteOffset":0,"byteLength":360,"target":34962,"byteStride":12},{"buffer":0,"byteOffset":360,"byteLength":360,"target":34962,"byteStride":12},{"buffer":0,"byteOffset":720,"byteLength":240,"target":34962,"byteStride":8},{"buffer":0,"byteOffset":960,"byteLength":72,"target":34963}],"buffers":[{"byteLength":1032,"uri":"data:application/octet-stream;base64,"}],"accessors":[{"bufferView":0,"componentType":5126,"count":30,"max":[0.6976186037063599,0.8125,0.23411300778388977],"min":[-0.31179481744766235,-0.1875,-0.7674003839492798],"type":"VEC3"},{"bufferView":1,"componentType":5126,"count":30,"max":[0.70405513048172,1,0.9999997019767761],"min":[-0.9999178051948547,-1,-0.7101452946662903],"type":"VEC3"},{"bufferView":2,"componentType":5126,"count":30,"max":[1.7320499420166016,1.5],"min":[0,0],"type":"VEC2"},{"bufferView":3,"componentType":5123,"count":36,"max":[29],"min":[0],"type":"SCALAR"}],"materials":[{"pbrMetallicRoughness":{"metallicFactor":0,"roughnessFactor":1},"alphaMode":"MASK","alphaCutoff":0.05,"doubleSided":true}],"meshes":[{"primitives":[{"mode":4,"attributes":{"POSITION":0,"NORMAL":1,"TEXCOORD_0":2},"indices":3,"material":0}]}]}