{"asset":{"version":"2.0","generator":"Blockbench 4.11.2 glTF exporter"},"scenes":[{"nodes":[13],"name":"blockbench_export"}],"scene":0,"nodes":[{"name":"cuboid-col","mesh":0},{"name":"torso","children":[0]},{"name":"cuboid-col","mesh":1},{"translation":[-0.1,0,0],"name":"Right_leg","children":[2]},{"name":"cuboid-col","mesh":2},{"translation":[0.1,0,0],"name":"Left_leg","children":[4]},{"name":"sphere-col","mesh":3},{"translation":[0,0.6875,0],"name":"head","children":[6]},{"rotation":[0.018881177754556392,0.006877961738981003,-0.08679035567140764,0.996023909819111],"translation":[0.019212433295695275,0.2539445323554843,-0.009104581871731195],"name":"cuboid-col","mesh":4},{"translation":[-0.2692124332956954,0.2460554676445157,0.009104581871731195],"name":"Right_arm","children":[8]},{"rotation":[0.0017445624413132959,-0.022629903731065413,0.08414848455502365,0.9961946980917455],"translation":[-0.020566123276865245,0.0035420054755093133,0.00008317412503446638],"name":"cuboid-col","mesh":5},{"translation":[0.27056612327686513,0.4964579945244907,-0.00008317412503446638],"name":"Left_arm","children":[10]},{"translation":[0,0.53125,0],"name":"all","children":[1,3,5,7,9,11]},{"children":[12]}],"bufferViews":[{"buffer":0,"byteOffset":0,"byteLength":288,"target":34962,"byteStride":12},{"buffer":0,"byteOffset":288,"byteLength":288,"target":34962,"byteStride":12},{"buffer":0,"byteOffset":576,"byteLength":192,"target":34962,"byteStride":8},{"buffer":0,"byteOffset":768,"byteLength":72,"target":34963},{"buffer":0,"byteOffset":840,"byteLength":288,"target":34962,"byteStride":12},{"buffer":0,"byteOffset":1128,"byteLength":288,"target":34962,"byteStride":12},{"buffer":0,"byteOffset":1416,"byteLength":192,"target":34962,"byteStride":8},{"buffer":0,"byteOffset":1608,"byteLength":72,"target":34963},{"buffer":0,"byteOffset":1680,"byteLength":288,"target":34962,"byteStride":12},{"buffer":0,"byteOffset":1968,"byteLength":288,"target":34962,"byteStride":12},{"buffer":0,"byteOffset":2256,"byteLength":192,"target":34962,"byteStride":8},{"buffer":0,"byteOffset":2448,"byteLength":72,"target":34963},{"buffer":0,"byteOffset":2520,"byteLength":3168,"target":34962,"byteStride":12},{"buffer":0,"byteOffset":5688,"byteLength":3168,"target":34962,"byteStride":12},{"buffer":0,"byteOffset":8856,"byteLength":2112,"target":34962,"byteStride":8},{"buffer":0,"byteOffset":10968,"byteLength":720,"target":34963},{"buffer":0,"byteOffset":11688,"byteLength":288,"target":34962,"byteStride":12},{"buffer":0,"byteOffset":11976,"byteLength":288,"target":34962,"byteStride":12},{"buffer":0,"byteOffset":12264,"byteLength":192,"target":34962,"byteStride":8},{"buffer":0,"byteOffset":12456,"byteLength":72,"target":34963},{"buffer":0,"byteOffset":12528,"byteLength":288,"target":34962,"byteStride":12},{"buffer":0,"byteOffset":12816,"byteLength":288,"target":34962,"byteStride":12},{"buffer":0,"byteOffset":13104,"byteLength":192,"target":34962,"byteStride":8},{"buffer":0,"byteOffset":13296,"byteLength":72,"target":34963},{"buffer":0,"byteOffset":13368,"byteLength":4},{"buffer":0,"byteOffset":13372,"byteLength":16},{"buffer":0,"byteOffset":13388,"byteLength":8},{"buffer":0,"byteOffset":13396,"byteLength":32},{"buffer":0,"byteOffset":13428,"byteLength":4},{"buffer":0,"byteOffset":13432,"byteLength":12},{"buffer":0,"byteOffset":13444,"byteLength":8},{"buffer":0,"byteOffset":13452,"byteLength":32},{"buffer":0,"byteOffset":13484,"byteLength":4},{"buffer":0,"byteOffset":13488,"byteLength":12},{"buffer":0,"byteOffset":13500,"byteLength":8},{"buffer":0,"byteOffset":13508,"byteLength":32},{"buffer":0,"byteOffset":13540,"byteLength":4},{"buffer":0,"byteOffset":13544,"byteLength":12},{"buffer":0,"byteOffset":13556,"byteLength":4},{"buffer":0,"byteOffset":13560,"byteLength":16},{"buffer":0,"byteOffset":13576,"byteLength":4},{"buffer":0,"byteOffset":13580,"byteLength":12},{"buffer":0,"byteOffset":13592,"byteLength":4},{"buffer":0,"byteOffset":13596,"byteLength":16},{"buffer":0,"byteOffset":13612,"byteLength":8},{"buffer":0,"byteOffset":13620,"byteLength":32},{"buffer":0,"byteOffset":13652,"byteLength":4},{"buffer":0,"byteOffset":13656,"byteLength":12},{"buffer":0,"byteOffset":13668,"byteLength":8},{"buffer":0,"byteOffset":13676,"byteLength":32},{"buffer":0,"byteOffset":13708,"byteLength":4},{"buffer":0,"byteOffset":13712,"byteLength":12},{"buffer":0,"byteOffset":13724,"byteLength":8},{"buffer":0,"byteOffset":13732,"byteLength":32},{"buffer":0,"byteOffset":13764,"byteLength":4},{"buffer":0,"byteOffset":13768,"byteLength":12},{"buffer":0,"byteOffset":13780,"byteLength":4},{"buffer":0,"byteOffset":13784,"byteLength":16},{"buffer":0,"byteOffset":13800,"byteLength":4},{"buffer":0,"byteOffset":13804,"byteLength":12},{"buffer":0,"byteOffset":13816,"byteLength":4},{"buffer":0,"byteOffset":13820,"byteLength":16},{"buffer":0,"byteOffset":13836,"byteLength":8},{"buffer":0,"byteOffset":13844,"byteLength":32},{"buffer":0,"byteOffset":13876,"byteLength":4},{"buffer":0,"byteOffset":13880,"byteLength":12},{"buffer":0,"byteOffset":13892,"byteLength":8},{"buffer":0,"byteOffset":13900,"byteLength":32},{"buffer":0,"byteOffset":13932,"byteLength":4},{"buffer":0,"byteOffset":13936,"byteLength":12},{"buffer":0,"byteOffset":13948,"byteLength":8},{"buffer":0,"byteOffset":13956,"byteLength":32},{"buffer":0,"byteOffset":13988,"byteLength":4},{"buffer":0,"byteOffset":13992,"byteLength":12},{"buffer":0,"byteOffset":14004,"byteLength":4},{"buffer":0,"byteOffset":14008,"byteLength":16},{"buffer":0,"byteOffset":14024,"byteLength":4},{"buffer":0,"byteOffset":14028,"byteLength":12}],"buffers":[{"byteLength":14040,"uri":"data:application/octet-stream;base64,"}],"accessors":[{"bufferView":0,"componentType":5126,"count":24,"max":[0.21875,0.5,0.125],"min":[-0.21875,0,-0.125],"type":"VEC3"},{"bufferView":1,"componentType":5126,"count":24,"max":[0.9898253679275513,1,0.9965457320213318],"min":[-0.9898253679275513,-1,-0.9965457320213318],"type":"VEC3"},{"bufferView":2,"componentType":5126,"count":24,"max":[0.390625,0.3125],"min":[0,0],"type":"VEC2"},{"bufferView":3,"componentType":5123,"count":36,"max":[23],"min":[0],"type":"SCALAR"},{"bufferView":4,"componentType":5126,"count":24,"max":[0.08749999850988388,0.03125,0.09375],"min":[-0.08749999850988388,-0.53125,-0.09375],"type":"VEC3"},{"bufferView":5,"componentType":5126,"count":24,"max":[1,1,1],"min":[-1,-1,-1],"type":"VEC3"},{"bufferView":6,"componentType":5126,"count":24,"max":[0.53125,0.53125],"min":[0,0.296875],"type":"VEC2"},{"bufferView":7,"componentType":5123,"count":36,"max":[23],"min":[0],"type":"SCALAR"},{"bufferView":8,"componentType":5126,"count":24,"max":[0.08749999850988388,0.03125,0.09375],"min":[-0.08749999850988388,-0.53125,-0.09375],"type":"VEC3"},{"bufferView":9,"componentType":5126,"count":24,"max":[1,1,1],"min":[-1,-1,-1],"type":"VEC3"},{"bufferView":10,"componentType":5126,"count":24,"max":[0.5625,0.53125],"min":[0.25,0.078125],"type":"VEC2"},{"bufferView":11,"componentType":5123,"count":36,"max":[23],"min":[0],"type":"SCALAR"},{"bufferView":12,"componentType":5126,"count":264,"max":[0.1875,0.1875,0.1875],"min":[-0.1875,-0.1875,-0.1875],"type":"VEC3"},{"bufferView":13,"componentType":5126,"count":264,"max":[0.9659258127212524,0.9659258127212524,0.9659258127212524],"min":[-0.9659258127212524,-0.9659258127212524,-0.9659258127212524],"type":"VEC3"},{"bufferView":14,"componentType":5126,"count":264,"max":[0.586120069026947,0.40625],"min":[0.08581771701574326,0],"type":"VEC2"},{"bufferView":15,"componentType":5123,"count":360,"max":[263],"min":[0],"type":"SCALAR"},{"bufferView":16,"componentType":5126,"count":24,"max":[0.08726289123296738,-0.0029328269883990288,0.08125155419111252],"min":[-0.03773710876703262,-0.5029328465461731,-0.04374844208359718],"type":"VEC3"},{"bufferView":17,"componentType":5126,"count":24,"max":[1,1,1],"min":[-1,-1,-1],"type":"VEC3"},{"bufferView":18,"componentType":5126,"count":24,"max":[0.546875,0.609375],"min":[0.046875,0.078125],"type":"VEC2"},{"bufferView":19,"componentType":5123,"count":36,"max":[23],"min":[0],"type":"SCALAR"},{"bufferView":20,"componentType":5126,"count":24,"max":[0.040262069553136826,-0.00339945824816823,0.06334257125854492],"min":[-0.08473792672157288,-0.5033994317054749,-0.06165742874145508],"type":"VEC3"},{"bufferView":21,"componentType":5126,"count":24,"max":[1,1,1],"min":[-1,-1,-1],"type":"VEC3"},{"bufferView":22,"componentType":5126,"count":24,"max":[0.46875,0.5625],"min":[0,0.078125],"type":"VEC2"},{"bufferView":23,"componentType":5123,"count":36,"max":[23],"min":[0],"type":"SCALAR"},{"bufferView":24,"componentType":5126,"count":1,"max":[0],"min":[0],"type":"SCALAR"},{"bufferView":25,"componentType":5126,"count":1,"max":[-0.08715574443340302,0,0,0.9961947202682495],"min":[-0.08715574443340302,0,0,0.9961947202682495],"type":"VEC4"},{"bufferView":26,"componentType":5126,"count":2,"max":[0.5],"min":[0],"type":"SCALAR"},{"bufferView":27,"componentType":5126,"count":2,"max":[0.019101042300462723,0.0026353984139859676,0.010202649980783463,1],"min":[0,0,0,0.9997619986534119],"type":"VEC4"},{"bufferView":28,"componentType":5126,"count":1,"max":[0],"min":[0],"type":"SCALAR"},{"bufferView":29,"componentType":5126,"count":1,"max":[0,0.6875,-0.0625],"min":[0,0.6875,-0.0625],"type":"VEC3"},{"bufferView":30,"componentType":5126,"count":2,"max":[0.5],"min":[0],"type":"SCALAR"},{"bufferView":31,"componentType":5126,"count":2,"max":[-0.5085198283195496,0.14597071707248688,0.37845808267593384,0.7610536813735962],"min":[-0.5250011086463928,0.13774748146533966,0.3753630816936493,0.7497792840003967],"type":"VEC4"},{"bufferView":32,"componentType":5126,"count":1,"max":[0],"min":[0],"type":"SCALAR"},{"bufferView":33,"componentType":5126,"count":1,"max":[-0.14421243965625763,0.3085554540157318,0.05597958341240883],"min":[-0.14421243965625763,0.3085554540157318,0.05597958341240883],"type":"VEC3"},{"bufferView":34,"componentType":5126,"count":2,"max":[0.5],"min":[0],"type":"SCALAR"},{"bufferView":35,"componentType":5126,"count":2,"max":[-0.293365478515625,-0.1862117499113083,-0.45915818214416504,0.8124598264694214],"min":[-0.3072587549686432,-0.19457462430000305,-0.4731407165527344,0.8075984716415405],"type":"VEC4"},{"bufferView":36,"componentType":5126,"count":1,"max":[0],"min":[0],"type":"SCALAR"},{"bufferView":37,"componentType":5126,"count":1,"max":[0.2705661356449127,0.4339579939842224,-0.00008317412721225992],"min":[0.2705661356449127,0.4339579939842224,-0.00008317412721225992],"type":"VEC3"},{"bufferView":38,"componentType":5126,"count":1,"max":[0],"min":[0],"type":"SCALAR"},{"bufferView":39,"componentType":5126,"count":1,"max":[-0.10886687785387039,0,0,0.9940563440322876],"min":[-0.10886687785387039,0,0,0.9940563440322876],"type":"VEC4"},{"bufferView":40,"componentType":5126,"count":1,"max":[0],"min":[0],"type":"SCALAR"},{"bufferView":41,"componentType":5126,"count":1,"max":[0.10000000149011612,0,0],"min":[0.10000000149011612,0,0],"type":"VEC3"},{"bufferView":42,"componentType":5126,"count":1,"max":[0],"min":[0],"type":"SCALAR"},{"bufferView":43,"componentType":5126,"count":1,"max":[-0.08715574443340302,0,0,0.9961947202682495],"min":[-0.08715574443340302,0,0,0.9961947202682495],"type":"VEC4"},{"bufferView":44,"componentType":5126,"count":2,"max":[0.5],"min":[0],"type":"SCALAR"},{"bufferView":45,"componentType":5126,"count":2,"max":[0.019101042300462723,0.0026353984139859676,0.010202649980783463,1],"min":[0,0,0,0.9997619986534119],"type":"VEC4"},{"bufferView":46,"componentType":5126,"count":1,"max":[0],"min":[0],"type":"SCALAR"},{"bufferView":47,"componentType":5126,"count":1,"max":[0,0.6875,-0.0625],"min":[0,0.6875,-0.0625],"type":"VEC3"},{"bufferView":48,"componentType":5126,"count":2,"max":[0.5],"min":[0],"type":"SCALAR"},{"bufferView":49,"componentType":5126,"count":2,"max":[-0.5085198283195496,0.14597071707248688,0.37845808267593384,0.7610536813735962],"min":[-0.5250011086463928,0.13774748146533966,0.3753630816936493,0.7497792840003967],"type":"VEC4"},{"bufferView":50,"componentType":5126,"count":1,"max":[0],"min":[0],"type":"SCALAR"},{"bufferView":51,"componentType":5126,"count":1,"max":[-0.14421243965625763,0.3085554540157318,0.05597958341240883],"min":[-0.14421243965625763,0.3085554540157318,0.05597958341240883],"type":"VEC3"},{"bufferView":52,"componentType":5126,"count":2,"max":[0.5],"min":[0],"type":"SCALAR"},{"bufferView":53,"componentType":5126,"count":2,"max":[-0.8243350982666016,0.030621634796261787,-0.5148738622665405,0.23398111760616302],"min":[-0.831727921962738,0.02508736588060856,-0.5192593932151794,0.19406364858150482],"type":"VEC4"},{"bufferView":54,"componentType":5126,"count":1,"max":[0],"min":[0],"type":"SCALAR"},{"bufferView":55,"componentType":5126,"count":1,"max":[0.2705661356449127,0.4339579939842224,-0.00008317412721225992],"min":[0.2705661356449127,0.4339579939842224,-0.00008317412721225992],"type":"VEC3"},{"bufferView":56,"componentType":5126,"count":1,"max":[0],"min":[0],"type":"SCALAR"},{"bufferView":57,"componentType":5126,"count":1,"max":[-0.10886687785387039,0,0,0.9940563440322876],"min":[-0.10886687785387039,0,0,0.9940563440322876],"type":"VEC4"},{"bufferView":58,"componentType":5126,"count":1,"max":[0],"min":[0],"type":"SCALAR"},{"bufferView":59,"componentType":5126,"count":1,"max":[0.10000000149011612,0,0],"min":[0.10000000149011612,0,0],"type":"VEC3"},{"bufferView":60,"componentType":5126,"count":1,"max":[0],"min":[0],"type":"SCALAR"},{"bufferView":61,"componentType":5126,"count":1,"max":[-0.08715574443340302,0,0,0.9961947202682495],"min":[-0.08715574443340302,0,0,0.9961947202682495],"type":"VEC4"},{"bufferView":62,"componentType":5126,"count":2,"max":[0.5],"min":[0],"type":"SCALAR"},{"bufferView":63,"componentType":5126,"count":2,"max":[0.019101042300462723,0.0026353984139859676,0.010202649980783463,1],"min":[0,0,0,0.9997619986534119],"type":"VEC4"},{"bufferView":64,"componentType":5126,"count":1,"max":[0],"min":[0],"type":"SCALAR"},{"bufferView":65,"componentType":5126,"count":1,"max":[0,0.6875,-0.0625],"min":[0,0.6875,-0.0625],"type":"VEC3"},{"bufferView":66,"componentType":5126,"count":2,"max":[0.5],"min":[0],"type":"SCALAR"},{"bufferView":67,"componentType":5126,"count":2,"max":[-0.5328861474990845,0.10311584174633026,0.3286098837852478,0.7729262709617615],"min":[-0.5975133180618286,0.0004888387047685683,0.26135653257369995,0.758070170879364],"type":"VEC4"},{"bufferView":68,"componentType":5126,"count":1,"max":[0],"min":[0],"type":"SCALAR"},{"bufferView":69,"componentType":5126,"count":1,"max":[-0.19108743965625763,0.3085554540157318,0.05597958341240883],"min":[-0.19108743965625763,0.3085554540157318,0.05597958341240883],"type":"VEC3"},{"bufferView":70,"componentType":5126,"count":2,"max":[0.5],"min":[0],"type":"SCALAR"},{"bufferView":71,"componentType":5126,"count":2,"max":[-0.3312058746814728,-0.11926968395709991,-0.26762673258781433,0.8969132304191589],"min":[-0.33492615818977356,-0.13002784550189972,-0.3111003637313843,0.8798487186431885],"type":"VEC4"},{"bufferView":72,"componentType":5126,"count":1,"max":[0],"min":[0],"type":"SCALAR"},{"bufferView":73,"componentType":5126,"count":1,"max":[0.2705661356449127,0.4339579939842224,-0.00008317412721225992],"min":[0.2705661356449127,0.4339579939842224,-0.00008317412721225992],"type":"VEC3"},{"bufferView":74,"componentType":5126,"count":1,"max":[0],"min":[0],"type":"SCALAR"},{"bufferView":75,"componentType":5126,"count":1,"max":[-0.10886687785387039,0,0,0.9940563440322876],"min":[-0.10886687785387039,0,0,0.9940563440322876],"type":"VEC4"},{"bufferView":76,"componentType":5126,"count":1,"max":[0],"min":[0],"type":"SCALAR"},{"bufferView":77,"componentType":5126,"count":1,"max":[0.10000000149011612,0,0],"min":[0.10000000149011612,0,0],"type":"VEC3"}],"materials":[{"pbrMetallicRoughness":{"metallicFactor":0,"roughnessFactor":1,"baseColorTexture":{"index":0}},"alphaMode":"MASK","alphaCutoff":0.05,"doubleSided":true}],"textures":[{"sampler":0,"source":0,"name":"texture"}],"samplers":[{"magFilter":9728,"minFilter":9728,"wrapS":33071,"wrapT":33071}],"images":[{"mimeType":"image/png","uri":"data:image/png;base64,"}],"meshes":[{"primitives":[{"mode":4,"attributes":{"POSITION":0,"NORMAL":1,"TEXCOORD_0":2},"indices":3,"material":0}]},{"primitives":[{"mode":4,"attributes":{"POSITION":4,"NORMAL":5,"TEXCOORD_0":6},"indices":7,"material":0}]},{"primitives":[{"mode":4,"attributes":{"POSITION":8,"NORMAL":9,"TEXCOORD_0":10},"indices":11,"material":0}]},{"primitives":[{"mode":4,"attributes":{"POSITION":12,"NORMAL":13,"TEXCOORD_0":14},"indices":15,"material":0}]},{"primitives":[{"mode":4,"attributes":{"POSITION":16,"NORMAL":17,"TEXCOORD_0":18},"indices":19,"material":0}]},{"primitives":[{"mode":4,"attributes":{"POSITION":20,"NORMAL":21,"TEXCOORD_0":22},"indices":23,"material":0}]}],"animations":[{"name":"un_lean","samplers":[{"input":24,"output":25,"interpolation":"LINEAR"},{"input":26,"output":27,"interpolation":"STEP"},{"input":28,"output":29,"interpolation":"STEP"},{"input":30,"output":31,"interpolation":"STEP"},{"input":32,"output":33,"interpolation":"STEP"},{"input":34,"output":35,"interpolation":"STEP"},{"input":36,"output":37,"interpolation":"STEP"},{"input":38,"output":39,"interpolation":"LINEAR"},{"input":40,"output":41,"interpolation":"LINEAR"}],"channels":[{"sampler":0,"target":{"node":1,"path":"rotation"}},{"sampler":1,"target":{"node":7,"path":"rotation"}},{"sampler":2,"target":{"node":7,"path":"translation"}},{"sampler":3,"target":{"node":9,"path":"rotation"}},{"sampler":4,"target":{"node":9,"path":"translation"}},{"sampler":5,"target":{"node":11,"path":"rotation"}},{"sampler":6,"target":{"node":11,"path":"translation"}},{"sampler":7,"target":{"node":5,"path":"rotation"}},{"sampler":8,"target":{"node":5,"path":"translation"}}]},{"name":"un_lean_pointUP","samplers":[{"input":42,"output":43,"interpolation":"LINEAR"},{"input":44,"output":45,"interpolation":"STEP"},{"input":46,"output":47,"interpolation":"STEP"},{"input":48,"output":49,"interpolation":"STEP"},{"input":50,"output":51,"interpolation":"STEP"},{"input":52,"output":53,"interpolation":"STEP"},{"input":54,"output":55,"interpolation":"STEP"},{"input":56,"output":57,"interpolation":"LINEAR"},{"input":58,"output":59,"interpolation":"LINEAR"}],"channels":[{"sampler":0,"target":{"node":1,"path":"rotation"}},{"sampler":1,"target":{"node":7,"path":"rotation"}},{"sampler":2,"target":{"node":7,"path":"translation"}},{"sampler":3,"target":{"node":9,"path":"rotation"}},{"sampler":4,"target":{"node":9,"path":"translation"}},{"sampler":5,"target":{"node":11,"path":"rotation"}},{"sampler":6,"target":{"node":11,"path":"translation"}},{"sampler":7,"target":{"node":5,"path":"rotation"}},{"sampler":8,"target":{"node":5,"path":"translation"}}]},{"name":"un_lean_clap","samplers":[{"input":60,"output":61,"interpolation":"LINEAR"},{"input":62,"output":63,"interpolation":"STEP"},{"input":64,"output":65,"interpolation":"STEP"},{"input":66,"output":67,"interpolation":"STEP"},{"input":68,"output":69,"interpolation":"STEP"},{"input":70,"output":71,"interpolation":"STEP"},{"input":72,"output":73,"interpolation":"STEP"},{"input":74,"output":75,"interpolation":"LINEAR"},{"input":76,"output":77,"interpolation":"LINEAR"}],"channels":[{"sampler":0,"target":{"node":1,"path":"rotation"}},{"sampler":1,"target":{"node":7,"path":"rotation"}},{"sampler":2,"target":{"node":7,"path":"translation"}},{"sampler":3,"target":{"node":9,"path":"rotation"}},{"sampler":4,"target":{"node":9,"path":"translation"}},{"sampler":5,"target":{"node":11,"path":"rotation"}},{"sampler":6,"target":{"node":11,"path":"translation"}},{"sampler":7,"target":{"node":5,"path":"rotation"}},{"sampler":8,"target":{"node":5,"path":"translation"}}]}]}