{"asset":{"version":"2.0","generator":"Blockbench 4.12.2 glTF exporter"},"scenes":[{"nodes":[16],"name":"blockbench_export"}],"scene":0,"nodes":[{"translation":[0,0.046875,0],"name":"cuboid-col","mesh":0},{"name":"torso","children":[0]},{"translation":[0,-0.421875,0],"name":"cuboid-col","mesh":1},{"translation":[-0.1,0,0],"name":"Right_leg","children":[2]},{"translation":[0,-0.421875,0],"name":"cuboid-col","mesh":2},{"translation":[0.1,0,0],"name":"Left_leg","children":[4]},{"rotation":[0.0017445624413132959,-0.022629903731065413,0.08414848455502365,0.9961946980917455],"translation":[0.041933876723134755,-0.4495829945244907,0.00008317412503446638],"name":"cuboid-col","mesh":3},{"translation":[0.27056612327686513,0.4964579945244907,-0.00008317412503446638],"name":"Left_arm","children":[6]},{"rotation":[0.018881177754556392,0.006877961738981003,-0.08679035567140764,0.996023909819111],"translation":[0.019212433295695275,0.3008195323554843,-0.009104581871731195],"name":"cuboid-col","mesh":4},{"translation":[-0.2692124332956954,0.2460554676445157,0.009104581871731195],"name":"Right_arm","children":[8]},{"translation":[0,0.0625,0],"name":"sphere-col","mesh":5},{"translation":[0,0.6875,0],"name":"head","children":[10]},{"rotation":[0.049308018519745485,0.9986389491627634,-0.015743611906559166,-0.006411490379285345],"name":"circle-col","mesh":6},{"rotation":[-0.1276867668621619,-0.9328501543603868,-0.3305218833381066,0.06513035937810854],"translation":[-0.03125,0.203125,-0.25],"name":"circle-col","mesh":7},{"translation":[0.046875,0.546875,0.25],"name":"hat","children":[12,13]},{"translation":[0,0.5,0],"name":"all","children":[1,3,5,7,9,11,14]},{"children":[15]}],"bufferViews":[{"buffer":0,"byteOffset":0,"byteLength":288,"target":34962,"byteStride":12},{"buffer":0,"byteOffset":288,"byteLength":288,"target":34962,"byteStride":12},{"buffer":0,"byteOffset":576,"byteLength":192,"target":34962,"byteStride":8},{"buffer":0,"byteOffset":768,"byteLength":72,"target":34963},{"buffer":0,"byteOffset":840,"byteLength":288,"target":34962,"byteStride":12},{"buffer":0,"byteOffset":1128,"byteLength":288,"target":34962,"byteStride":12},{"buffer":0,"byteOffset":1416,"byteLength":192,"target":34962,"byteStride":8},{"buffer":0,"byteOffset":1608,"byteLength":72,"target":34963},{"buffer":0,"byteOffset":1680,"byteLength":288,"target":34962,"byteStride":12},{"buffer":0,"byteOffset":1968,"byteLength":288,"target":34962,"byteStride":12},{"buffer":0,"byteOffset":2256,"byteLength":192,"target":34962,"byteStride":8},{"buffer":0,"byteOffset":2448,"byteLength":72,"target":34963},{"buffer":0,"byteOffset":2520,"byteLength":288,"target":34962,"byteStride":12},{"buffer":0,"byteOffset":2808,"byteLength":288,"target":34962,"byteStride":12},{"buffer":0,"byteOffset":3096,"byteLength":192,"target":34962,"byteStride":8},{"buffer":0,"byteOffset":3288,"byteLength":72,"target":34963},{"buffer":0,"byteOffset":3360,"byteLength":288,"target":34962,"byteStride":12},{"buffer":0,"byteOffset":3648,"byteLength":288,"target":34962,"byteStride":12},{"buffer":0,"byteOffset":3936,"byteLength":192,"target":34962,"byteStride":8},{"buffer":0,"byteOffset":4128,"byteLength":72,"target":34963},{"buffer":0,"byteOffset":4200,"byteLength":3168,"target":34962,"byteStride":12},{"buffer":0,"byteOffset":7368,"byteLength":3168,"target":34962,"byteStride":12},{"buffer":0,"byteOffset":10536,"byteLength":2112,"target":34962,"byteStride":8},{"buffer":0,"byteOffset":12648,"byteLength":720,"target":34963},{"buffer":0,"byteOffset":13368,"byteLength":252,"target":34962,"byteStride":12},{"buffer":0,"byteOffset":13620,"byteLength":252,"target":34962,"byteStride":12},{"buffer":0,"byteOffset":13872,"byteLength":168,"target":34962,"byteStride":8},{"buffer":0,"byteOffset":14040,"byteLength":44,"target":34963},{"buffer":0,"byteOffset":14084,"byteLength":324,"target":34962,"byteStride":12},{"buffer":0,"byteOffset":14408,"byteLength":324,"target":34962,"byteStride":12},{"buffer":0,"byteOffset":14732,"byteLength":216,"target":34962,"byteStride":8},{"buffer":0,"byteOffset":14948,"byteLength":56,"target":34963},{"buffer":0,"byteOffset":15004,"byteLength":12},{"buffer":0,"byteOffset":15016,"byteLength":48},{"buffer":0,"byteOffset":15064,"byteLength":8},{"buffer":0,"byteOffset":15072,"byteLength":24},{"buffer":0,"byteOffset":15096,"byteLength":12},{"buffer":0,"byteOffset":15108,"byteLength":48},{"buffer":0,"byteOffset":15156,"byteLength":8},{"buffer":0,"byteOffset":15164,"byteLength":24},{"buffer":0,"byteOffset":15188,"byteLength":12},{"buffer":0,"byteOffset":15200,"byteLength":48},{"buffer":0,"byteOffset":15248,"byteLength":12},{"buffer":0,"byteOffset":15260,"byteLength":48},{"buffer":0,"byteOffset":15308,"byteLength":12},{"buffer":0,"byteOffset":15320,"byteLength":48},{"buffer":0,"byteOffset":15368,"byteLength":12},{"buffer":0,"byteOffset":15380,"byteLength":36},{"buffer":0,"byteOffset":15416,"byteLength":12},{"buffer":0,"byteOffset":15428,"byteLength":48},{"buffer":0,"byteOffset":15476,"byteLength":12},{"buffer":0,"byteOffset":15488,"byteLength":36},{"buffer":0,"byteOffset":15524,"byteLength":12},{"buffer":0,"byteOffset":15536,"byteLength":48},{"buffer":0,"byteOffset":15584,"byteLength":12},{"buffer":0,"byteOffset":15596,"byteLength":48},{"buffer":0,"byteOffset":15644,"byteLength":12},{"buffer":0,"byteOffset":15656,"byteLength":36},{"buffer":0,"byteOffset":15692,"byteLength":12},{"buffer":0,"byteOffset":15704,"byteLength":36},{"buffer":0,"byteOffset":15740,"byteLength":8},{"buffer":0,"byteOffset":15748,"byteLength":32},{"buffer":0,"byteOffset":15780,"byteLength":8},{"buffer":0,"byteOffset":15788,"byteLength":32}],"buffers":[{"byteLength":15820,"uri":"data:application/octet-stream;base64,"}],"accessors":[{"bufferView":0,"componentType":5126,"count":24,"max":[0.21875,0.515625,0.125],"min":[-0.21875,-0.015625,-0.125],"type":"VEC3"},{"bufferView":1,"componentType":5126,"count":24,"max":[0.9944411516189575,1,0.9969384074211121],"min":[-0.9944411516189575,-1,-0.9969384074211121],"type":"VEC3"},{"bufferView":2,"componentType":5126,"count":24,"max":[0.390625,0.3125],"min":[0,0],"type":"VEC2"},{"bufferView":3,"componentType":5123,"count":36,"max":[23],"min":[0],"type":"SCALAR"},{"bufferView":4,"componentType":5126,"count":24,"max":[0.08749999850988388,0.453125,0.09375],"min":[-0.08749999850988388,-0.078125,-0.09375],"type":"VEC3"},{"bufferView":5,"componentType":5126,"count":24,"max":[1,1,1],"min":[-1,-1,-1],"type":"VEC3"},{"bufferView":6,"componentType":5126,"count":24,"max":[0.53125,0.53125],"min":[0,0.296875],"type":"VEC2"},{"bufferView":7,"componentType":5123,"count":36,"max":[23],"min":[0],"type":"SCALAR"},{"bufferView":8,"componentType":5126,"count":24,"max":[0.08749999850988388,0.453125,0.09375],"min":[-0.08749999850988388,-0.078125,-0.09375],"type":"VEC3"},{"bufferView":9,"componentType":5126,"count":24,"max":[1,1,1],"min":[-1,-1,-1],"type":"VEC3"},{"bufferView":10,"componentType":5126,"count":24,"max":[0.5625,0.53125],"min":[0.25,0.078125],"type":"VEC2"},{"bufferView":11,"componentType":5123,"count":36,"max":[23],"min":[0],"type":"SCALAR"},{"bufferView":12,"componentType":5126,"count":24,"max":[0.0625,0.515625,0.0625],"min":[-0.0625,-0.015625,-0.0625],"type":"VEC3"},{"bufferView":13,"componentType":5126,"count":24,"max":[1,1,1],"min":[-1,-1,-1],"type":"VEC3"},{"bufferView":14,"componentType":5126,"count":24,"max":[0.46875,0.5625],"min":[0,0.078125],"type":"VEC2"},{"bufferView":15,"componentType":5123,"count":36,"max":[23],"min":[0],"type":"SCALAR"},{"bufferView":16,"componentType":5126,"count":24,"max":[0.08726289123296738,0.012692173011600971,0.08125155419111252],"min":[-0.03773710876703262,-0.5185578465461731,-0.04374844208359718],"type":"VEC3"},{"bufferView":17,"componentType":5126,"count":24,"max":[1,1,1],"min":[-1,-1,-1],"type":"VEC3"},{"bufferView":18,"componentType":5126,"count":24,"max":[0.546875,0.609375],"min":[0.046875,0.078125],"type":"VEC2"},{"bufferView":19,"componentType":5123,"count":36,"max":[23],"min":[0],"type":"SCALAR"},{"bufferView":20,"componentType":5126,"count":264,"max":[0.1875,0.1875,0.1875],"min":[-0.1875,-0.1875,-0.1875],"type":"VEC3"},{"bufferView":21,"componentType":5126,"count":264,"max":[0.9659258127212524,0.9659258127212524,0.9659258127212524],"min":[-0.9659258127212524,-0.9659258127212524,-0.9659258127212524],"type":"VEC3"},{"bufferView":22,"componentType":5126,"count":264,"max":[0.586120069026947,0.40625],"min":[0.08581771701574326,0],"type":"VEC2"},{"bufferView":23,"componentType":5123,"count":360,"max":[263],"min":[0],"type":"SCALAR"},{"bufferView":24,"componentType":5126,"count":21,"max":[0.37528756260871887,0.04413672164082527,0.29742497205734253],"min":[-0.26548540592193604,-0.06935726851224899,-0.19121317565441132],"type":"VEC3"},{"bufferView":25,"componentType":5126,"count":21,"max":[0.32332736253738403,0.9702901840209961,0.4758208692073822],"min":[-0.2749876379966736,0.7305507063865662,-0.6693953275680542],"type":"VEC3"},{"bufferView":26,"componentType":5126,"count":21,"max":[0.8597888350486755,0.8109894394874573],"min":[0.1875,0],"type":"VEC2"},{"bufferView":27,"componentType":5123,"count":21,"max":[20],"min":[0],"type":"SCALAR"},{"bufferView":28,"componentType":5126,"count":27,"max":[0.3519541919231415,0.3444594740867615,0.39251643419265747],"min":[-0.3578215539455414,-0.2207493931055069,-0.4575033187866211],"type":"VEC3"},{"bufferView":29,"componentType":5126,"count":27,"max":[0.8780342936515808,0.9368756413459778,0.9292532205581665],"min":[-0.7696376442909241,0.3694433867931366,-0.3151053488254547],"type":"VEC3"},{"bufferView":30,"componentType":5126,"count":27,"max":[0.7763057947158813,0.7563241124153137],"min":[0.008524362929165363,0],"type":"VEC2"},{"bufferView":31,"componentType":5123,"count":27,"max":[26],"min":[0],"type":"SCALAR"},{"bufferView":32,"componentType":5126,"count":3,"max":[0.5],"min":[0],"type":"SCALAR"},{"bufferView":33,"componentType":5126,"count":3,"max":[0.7955358624458313,-0.09492126107215881,0.42181822657585144,0.8225374221801758],"min":[0.5441167950630188,-0.1329987794160843,-0.1354953497648239,0.41412973403930664],"type":"VEC4"},{"bufferView":34,"componentType":5126,"count":2,"max":[0.5],"min":[0],"type":"SCALAR"},{"bufferView":35,"componentType":5126,"count":2,"max":[0.3018161356449127,0.4964579939842224,-0.00008317412721225992],"min":[0.3018161356449127,0.4964579939842224,-0.00008317412721225992],"type":"VEC3"},{"bufferView":36,"componentType":5126,"count":3,"max":[0.5],"min":[0],"type":"SCALAR"},{"bufferView":37,"componentType":5126,"count":3,"max":[0.3435371518135071,-0.114336758852005,-0.04218105971813202,0.9311981797218323],"min":[0.3117470145225525,-0.4075927734375,-0.15036891400814056,0.8450272679328918],"type":"VEC4"},{"bufferView":38,"componentType":5126,"count":2,"max":[0.5],"min":[0],"type":"SCALAR"},{"bufferView":39,"componentType":5126,"count":2,"max":[-0.30046242475509644,0.246055468916893,-0.20964542031288147],"min":[-0.30046242475509644,0.246055468916893,-0.20964542031288147],"type":"VEC3"},{"bufferView":40,"componentType":5126,"count":3,"max":[0.5],"min":[0],"type":"SCALAR"},{"bufferView":41,"componentType":5126,"count":3,"max":[0.13052618503570557,0,0,1],"min":[0,0,0,0.9914448857307434],"type":"VEC4"},{"bufferView":42,"componentType":5126,"count":3,"max":[0.5],"min":[0],"type":"SCALAR"},{"bufferView":43,"componentType":5126,"count":3,"max":[0.04361938685178757,0,0,1],"min":[0,0,0,0.9990482330322266],"type":"VEC4"},{"bufferView":44,"componentType":5126,"count":3,"max":[0.5],"min":[0],"type":"SCALAR"},{"bufferView":45,"componentType":5126,"count":3,"max":[0.9136644601821899,0.27735984325408936,-0.1425900161266327,0.34849897027015686],"min":[0.9079031348228455,0.169020414352417,-0.16028864681720734,0.26068538427352905],"type":"VEC4"},{"bufferView":46,"componentType":5126,"count":3,"max":[0.5],"min":[0],"type":"SCALAR"},{"bufferView":47,"componentType":5126,"count":3,"max":[0.2549411356449127,0.2464579939842224,-0.18758317828178406],"min":[0.19244112074375153,0.2464579939842224,-0.18758317828178406],"type":"VEC3"},{"bufferView":48,"componentType":5126,"count":3,"max":[0.5],"min":[0],"type":"SCALAR"},{"bufferView":49,"componentType":5126,"count":3,"max":[0.9376124739646912,-0.19198428094387054,0.16578607261180878,0.37361231446266174],"min":[0.901979923248291,-0.22519835829734802,0.0999406948685646,0.20659996569156647],"type":"VEC4"},{"bufferView":50,"componentType":5126,"count":3,"max":[0.5],"min":[0],"type":"SCALAR"},{"bufferView":51,"componentType":5126,"count":3,"max":[-0.11296243220567703,0.4335554540157318,-0.30339542031288147],"min":[-0.11296243220567703,0.41480547189712524,-0.30339542031288147],"type":"VEC3"},{"bufferView":52,"componentType":5126,"count":3,"max":[0.5],"min":[0],"type":"SCALAR"},{"bufferView":53,"componentType":5126,"count":3,"max":[0.06540312618017197,0,0,1],"min":[0,0,0,0.9978589415550232],"type":"VEC4"},{"bufferView":54,"componentType":5126,"count":3,"max":[0.5],"min":[0],"type":"SCALAR"},{"bufferView":55,"componentType":5126,"count":3,"max":[0.02181488461792469,0,0,1],"min":[0,0,0,0.9997619986534119],"type":"VEC4"},{"bufferView":56,"componentType":5126,"count":3,"max":[1],"min":[0],"type":"SCALAR"},{"bufferView":57,"componentType":5126,"count":3,"max":[0.2705661356449127,0.4964579939842224,-0.00008317412721225992],"min":[0.2705661356449127,0.4808329939842224,-0.00008317412721225992],"type":"VEC3"},{"bufferView":58,"componentType":5126,"count":3,"max":[1],"min":[0],"type":"SCALAR"},{"bufferView":59,"componentType":5126,"count":3,"max":[-0.26921242475509644,0.246055468916893,0.00910458154976368],"min":[-0.26921242475509644,0.230430468916893,0.00910458154976368],"type":"VEC3"},{"bufferView":60,"componentType":5126,"count":2,"max":[0.5],"min":[0],"type":"SCALAR"},{"bufferView":61,"componentType":5126,"count":2,"max":[0,0.02181488461792469,0,1],"min":[0,0,0,0.9997619986534119],"type":"VEC4"},{"bufferView":62,"componentType":5126,"count":2,"max":[0.5],"min":[0],"type":"SCALAR"},{"bufferView":63,"componentType":5126,"count":2,"max":[0,0.02181488461792469,0,1],"min":[0,0,0,0.9997619986534119],"type":"VEC4"}],"materials":[{"pbrMetallicRoughness":{"metallicFactor":0,"roughnessFactor":1,"baseColorTexture":{"index":0}},"alphaMode":"MASK","alphaCutoff":0.05,"doubleSided":true},{"pbrMetallicRoughness":{"metallicFactor":0,"roughnessFactor":1,"baseColorTexture":{"index":1}},"alphaMode":"MASK","alphaCutoff":0.05,"doubleSided":true}],"textures":[{"sampler":0,"source":0,"name":"texture"},{"sampler":1,"source":1,"name":"texture2"}],"samplers":[{"magFilter":9728,"minFilter":9728,"wrapS":33071,"wrapT":33071},{"magFilter":9728,"minFilter":9728,"wrapS":33071,"wrapT":33071}],"images":[{"mimeType":"image/png","uri":"data:image/png;base64,"},{"mimeType":"image/png","uri":"data:image/png;base64,"}],"meshes":[{"primitives":[{"mode":4,"attributes":{"POSITION":0,"NORMAL":1,"TEXCOORD_0":2},"indices":3,"material":0}]},{"primitives":[{"mode":4,"attributes":{"POSITION":4,"NORMAL":5,"TEXCOORD_0":6},"indices":7,"material":0}]},{"primitives":[{"mode":4,"attributes":{"POSITION":8,"NORMAL":9,"TEXCOORD_0":10},"indices":11,"material":0}]},{"primitives":[{"mode":4,"attributes":{"POSITION":12,"NORMAL":13,"TEXCOORD_0":14},"indices":15,"material":0}]},{"primitives":[{"mode":4,"attributes":{"POSITION":16,"NORMAL":17,"TEXCOORD_0":18},"indices":19,"material":0}]},{"primitives":[{"mode":4,"attributes":{"POSITION":20,"NORMAL":21,"TEXCOORD_0":22},"indices":23,"material":0}]},{"primitives":[{"mode":4,"attributes":{"POSITION":24,"NORMAL":25,"TEXCOORD_0":26},"indices":27,"material":1}]},{"primitives":[{"mode":4,"attributes":{"POSITION":28,"NORMAL":29,"TEXCOORD_0":30},"indices":31,"material":1}]}],"animations":[{"name":"talk1","samplers":[{"input":32,"output":33,"interpolation":"STEP"},{"input":34,"output":35,"interpolation":"STEP"},{"input":36,"output":37,"interpolation":"STEP"},{"input":38,"output":39,"interpolation":"STEP"},{"input":40,"output":41,"interpolation":"STEP"},{"input":42,"output":43,"interpolation":"STEP"}],"channels":[{"sampler":0,"target":{"node":7,"path":"rotation"}},{"sampler":1,"target":{"node":7,"path":"translation"}},{"sampler":2,"target":{"node":9,"path":"rotation"}},{"sampler":3,"target":{"node":9,"path":"translation"}},{"sampler":4,"target":{"node":11,"path":"rotation"}},{"sampler":5,"target":{"node":14,"path":"rotation"}}]},{"name":"talk2","samplers":[{"input":44,"output":45,"interpolation":"STEP"},{"input":46,"output":47,"interpolation":"STEP"},{"input":48,"output":49,"interpolation":"STEP"},{"input":50,"output":51,"interpolation":"STEP"},{"input":52,"output":53,"interpolation":"STEP"},{"input":54,"output":55,"interpolation":"STEP"}],"channels":[{"sampler":0,"target":{"node":7,"path":"rotation"}},{"sampler":1,"target":{"node":7,"path":"translation"}},{"sampler":2,"target":{"node":9,"path":"rotation"}},{"sampler":3,"target":{"node":9,"path":"translation"}},{"sampler":4,"target":{"node":11,"path":"rotation"}},{"sampler":5,"target":{"node":14,"path":"rotation"}}]},{"name":"idle","samplers":[{"input":56,"output":57,"interpolation":"STEP"},{"input":58,"output":59,"interpolation":"STEP"},{"input":60,"output":61,"interpolation":"STEP"},{"input":62,"output":63,"interpolation":"STEP"}],"channels":[{"sampler":0,"target":{"node":7,"path":"translation"}},{"sampler":1,"target":{"node":9,"path":"translation"}},{"sampler":2,"target":{"node":11,"path":"rotation"}},{"sampler":3,"target":{"node":14,"path":"rotation"}}]}]}