{"asset":{"version":"2.0","generator":"Blockbench 4.11.2 glTF exporter"},"scenes":[{"nodes":[13],"name":"blockbench_export"}],"scene":0,"nodes":[{"name":"sphere-col","mesh":0},{"translation":[0,0.6875,0],"name":"head","children":[0]},{"rotation":[0.018881177754556392,0.006877961738981003,-0.08679035567140764,0.996023909819111],"translation":[0.019212433295695275,0.2539445323554843,-0.009104581871731195],"name":"cuboid-col","mesh":1},{"translation":[-0.2692124332956954,0.2460554676445157,0.009104581871731195],"name":"Right_arm","children":[2]},{"rotation":[0.0017445624413132959,-0.022629903731065413,0.08414848455502365,0.9961946980917455],"translation":[0.041933876723134755,-0.4964579945244907,0.00008317412503446638],"name":"cuboid-col","mesh":2},{"translation":[0.27056612327686513,0.4964579945244907,-0.00008317412503446638],"name":"Left_arm","children":[4]},{"name":"cuboid-col","mesh":3},{"name":"torso","children":[1,3,5,6]},{"translation":[0,-0.4375,0],"name":"cuboid-col","mesh":4},{"translation":[-0.1,0,0],"name":"Right_leg","children":[8]},{"translation":[0,-0.4375,0],"name":"cuboid-col","mesh":5},{"translation":[0.1,0,0],"name":"Left_leg","children":[10]},{"translation":[0,0.5,0],"name":"all","children":[7,9,11]},{"children":[12]}],"bufferViews":[{"buffer":0,"byteOffset":0,"byteLength":3168,"target":34962,"byteStride":12},{"buffer":0,"byteOffset":3168,"byteLength":3168,"target":34962,"byteStride":12},{"buffer":0,"byteOffset":6336,"byteLength":2112,"target":34962,"byteStride":8},{"buffer":0,"byteOffset":8448,"byteLength":720,"target":34963},{"buffer":0,"byteOffset":9168,"byteLength":288,"target":34962,"byteStride":12},{"buffer":0,"byteOffset":9456,"byteLength":288,"target":34962,"byteStride":12},{"buffer":0,"byteOffset":9744,"byteLength":192,"target":34962,"byteStride":8},{"buffer":0,"byteOffset":9936,"byteLength":72,"target":34963},{"buffer":0,"byteOffset":10008,"byteLength":288,"target":34962,"byteStride":12},{"buffer":0,"byteOffset":10296,"byteLength":288,"target":34962,"byteStride":12},{"buffer":0,"byteOffset":10584,"byteLength":192,"target":34962,"byteStride":8},{"buffer":0,"byteOffset":10776,"byteLength":72,"target":34963},{"buffer":0,"byteOffset":10848,"byteLength":288,"target":34962,"byteStride":12},{"buffer":0,"byteOffset":11136,"byteLength":288,"target":34962,"byteStride":12},{"buffer":0,"byteOffset":11424,"byteLength":192,"target":34962,"byteStride":8},{"buffer":0,"byteOffset":11616,"byteLength":72,"target":34963},{"buffer":0,"byteOffset":11688,"byteLength":288,"target":34962,"byteStride":12},{"buffer":0,"byteOffset":11976,"byteLength":288,"target":34962,"byteStride":12},{"buffer":0,"byteOffset":12264,"byteLength":192,"target":34962,"byteStride":8},{"buffer":0,"byteOffset":12456,"byteLength":72,"target":34963},{"buffer":0,"byteOffset":12528,"byteLength":288,"target":34962,"byteStride":12},{"buffer":0,"byteOffset":12816,"byteLength":288,"target":34962,"byteStride":12},{"buffer":0,"byteOffset":13104,"byteLength":192,"target":34962,"byteStride":8},{"buffer":0,"byteOffset":13296,"byteLength":72,"target":34963},{"buffer":0,"byteOffset":13368,"byteLength":8},{"buffer":0,"byteOffset":13376,"byteLength":32},{"buffer":0,"byteOffset":13408,"byteLength":8},{"buffer":0,"byteOffset":13416,"byteLength":32},{"buffer":0,"byteOffset":13448,"byteLength":8},{"buffer":0,"byteOffset":13456,"byteLength":32}],"buffers":[{"byteLength":13488,"uri":"data:application/octet-stream;base64,"}],"accessors":[{"bufferView":0,"componentType":5126,"count":264,"max":[0.1875,0.1875,0.1875],"min":[-0.1875,-0.1875,-0.1875],"type":"VEC3"},{"bufferView":1,"componentType":5126,"count":264,"max":[0.9659258127212524,0.9659258127212524,0.9659258127212524],"min":[-0.9659258127212524,-0.9659258127212524,-0.9659258127212524],"type":"VEC3"},{"bufferView":2,"componentType":5126,"count":264,"max":[0.586120069026947,0.40625],"min":[0.08581771701574326,0],"type":"VEC2"},{"bufferView":3,"componentType":5123,"count":360,"max":[263],"min":[0],"type":"SCALAR"},{"bufferView":4,"componentType":5126,"count":24,"max":[0.08726289123296738,-0.0029328269883990288,0.08125155419111252],"min":[-0.03773710876703262,-0.5029328465461731,-0.04374844208359718],"type":"VEC3"},{"bufferView":5,"componentType":5126,"count":24,"max":[1,1,1],"min":[-1,-1,-1],"type":"VEC3"},{"bufferView":6,"componentType":5126,"count":24,"max":[0.546875,0.609375],"min":[0.046875,0.078125],"type":"VEC2"},{"bufferView":7,"componentType":5123,"count":36,"max":[23],"min":[0],"type":"SCALAR"},{"bufferView":8,"componentType":5126,"count":24,"max":[0.0625,0.5,0.0625],"min":[-0.0625,0,-0.0625],"type":"VEC3"},{"bufferView":9,"componentType":5126,"count":24,"max":[1,1,1],"min":[-1,-1,-1],"type":"VEC3"},{"bufferView":10,"componentType":5126,"count":24,"max":[0.46875,0.5625],"min":[0,0.078125],"type":"VEC2"},{"bufferView":11,"componentType":5123,"count":36,"max":[23],"min":[0],"type":"SCALAR"},{"bufferView":12,"componentType":5126,"count":24,"max":[0.21875,0.5,0.125],"min":[-0.21875,0,-0.125],"type":"VEC3"},{"bufferView":13,"componentType":5126,"count":24,"max":[0.985030472278595,1,0.9965457320213318],"min":[-0.985030472278595,-1,-0.9965457320213318],"type":"VEC3"},{"bufferView":14,"componentType":5126,"count":24,"max":[0.390625,0.3125],"min":[0,0],"type":"VEC2"},{"bufferView":15,"componentType":5123,"count":36,"max":[23],"min":[0],"type":"SCALAR"},{"bufferView":16,"componentType":5126,"count":24,"max":[0.08749999850988388,0.4375,0.09375],"min":[-0.08749999850988388,-0.0625,-0.09375],"type":"VEC3"},{"bufferView":17,"componentType":5126,"count":24,"max":[1,1,1],"min":[-1,-1,-1],"type":"VEC3"},{"bufferView":18,"componentType":5126,"count":24,"max":[0.53125,0.53125],"min":[0,0.296875],"type":"VEC2"},{"bufferView":19,"componentType":5123,"count":36,"max":[23],"min":[0],"type":"SCALAR"},{"bufferView":20,"componentType":5126,"count":24,"max":[0.08749999850988388,0.4375,0.09375],"min":[-0.08749999850988388,-0.0625,-0.09375],"type":"VEC3"},{"bufferView":21,"componentType":5126,"count":24,"max":[1,1,1],"min":[-1,-1,-1],"type":"VEC3"},{"bufferView":22,"componentType":5126,"count":24,"max":[0.5625,0.53125],"min":[0.25,0.078125],"type":"VEC2"},{"bufferView":23,"componentType":5123,"count":36,"max":[23],"min":[0],"type":"SCALAR"},{"bufferView":24,"componentType":5126,"count":2,"max":[0.5],"min":[0],"type":"SCALAR"},{"bufferView":25,"componentType":5126,"count":2,"max":[0.08715574443340302,0,0,0.9961947202682495],"min":[0,-0.13052618503570557,0,0.9914448857307434],"type":"VEC4"},{"bufferView":26,"componentType":5126,"count":2,"max":[0.5416666865348816],"min":[0],"type":"SCALAR"},{"bufferView":27,"componentType":5126,"count":2,"max":[0.4617486000061035,0,0,0.9914448857307434],"min":[-0.13052618503570557,0,0,0.8870108127593994],"type":"VEC4"},{"bufferView":28,"componentType":5126,"count":2,"max":[0.5],"min":[0],"type":"SCALAR"},{"bufferView":29,"componentType":5126,"count":2,"max":[0.258819043636322,0,0,1],"min":[0,0,0,0.9659258127212524],"type":"VEC4"}],"materials":[{"pbrMetallicRoughness":{"metallicFactor":0,"roughnessFactor":1,"baseColorTexture":{"index":0}},"alphaMode":"MASK","alphaCutoff":0.05,"doubleSided":true}],"textures":[{"sampler":0,"source":0,"name":"texture"}],"samplers":[{"magFilter":9728,"minFilter":9728,"wrapS":33071,"wrapT":33071}],"images":[{"mimeType":"image/png","uri":"data:image/png;base64,"}],"meshes":[{"primitives":[{"mode":4,"attributes":{"POSITION":0,"NORMAL":1,"TEXCOORD_0":2},"indices":3,"material":0}]},{"primitives":[{"mode":4,"attributes":{"POSITION":4,"NORMAL":5,"TEXCOORD_0":6},"indices":7,"material":0}]},{"primitives":[{"mode":4,"attributes":{"POSITION":8,"NORMAL":9,"TEXCOORD_0":10},"indices":11,"material":0}]},{"primitives":[{"mode":4,"attributes":{"POSITION":12,"NORMAL":13,"TEXCOORD_0":14},"indices":15,"material":0}]},{"primitives":[{"mode":4,"attributes":{"POSITION":16,"NORMAL":17,"TEXCOORD_0":18},"indices":19,"material":0}]},{"primitives":[{"mode":4,"attributes":{"POSITION":20,"NORMAL":21,"TEXCOORD_0":22},"indices":23,"material":0}]}],"animations":[{"name":"npc3_talk","samplers":[{"input":24,"output":25,"interpolation":"STEP"},{"input":26,"output":27,"interpolation":"STEP"},{"input":28,"output":29,"interpolation":"STEP"}],"channels":[{"sampler":0,"target":{"node":1,"path":"rotation"}},{"sampler":1,"target":{"node":3,"path":"rotation"}},{"sampler":2,"target":{"node":5,"path":"rotation"}}]}]}